# Blender 4.5.2 LTS
# www.blender.org
mtllib Sensor.mtl
o Sensor_2
v -4.588166 0.168237 8.996049
v -4.634111 0.168237 8.911602
v -4.605748 0.168237 8.989621
v -4.620654 0.168237 8.971316
v -4.630613 0.168237 8.943918
v -3.613127 0.168237 8.911602
v -3.659071 0.168237 8.996049
v -3.616624 0.168237 8.943918
v -3.626584 0.168237 8.971316
v -3.641489 0.168237 8.989621
v -4.588166 0.168237 7.119461
v -4.634111 0.168237 7.203908
v -4.605748 0.168237 7.125888
v -4.620654 0.168237 7.144195
v -4.630613 0.168237 7.171591
v -3.659071 0.168237 7.119461
v -3.613127 0.168237 7.203908
v -3.641489 0.168237 7.125888
v -3.626584 0.168237 7.144195
v -3.616624 0.168237 7.171591
v -4.588166 0.149843 8.996049
v -4.634111 0.149843 8.911602
v -4.605748 0.149843 8.989621
v -4.620654 0.149843 8.971316
v -4.630613 0.149843 8.943918
v -3.613127 0.149843 8.911602
v -3.659071 0.149843 8.996049
v -3.616624 0.149843 8.943918
v -3.626584 0.149843 8.971316
v -3.641489 0.149843 8.989621
v -4.588166 0.149843 7.119461
v -4.634111 0.149843 7.203908
v -4.605748 0.149843 7.125888
v -4.620654 0.149843 7.144195
v -4.630613 0.149843 7.171591
v -3.659071 0.149843 7.119461
v -3.613127 0.149843 7.203908
v -3.641489 0.149843 7.125888
v -3.626584 0.149843 7.144195
v -3.616624 0.149843 7.171591
v -3.670191 1.465744 6.108945
v -3.751173 1.465744 6.1557
v -3.751173 1.465744 6.249209
v -3.670191 1.465744 6.295964
v -3.58921 1.465744 6.249209
v -3.58921 1.465744 6.1557
v -3.670191 2.209645 6.127647
v -3.734977 2.209645 6.165051
v -3.734977 2.209645 6.239858
v -3.670191 2.209645 6.277262
v -3.605406 2.209645 6.239858
v -3.605406 2.209645 6.165051
v -3.751173 1.998765 6.249209
v -3.670191 1.998765 6.295964
v -3.670191 1.998765 6.108945
v -3.751173 1.998765 6.1557
v -3.58921 1.998765 6.1557
v -3.58921 1.998765 6.249209
v -3.736242 1.465744 6.136559
v -3.716756 1.465744 6.121803
v -3.694233 1.465744 6.112306
v -3.760283 1.465744 6.226708
v -3.76332 1.465744 6.202455
v -3.760283 1.465744 6.178201
v -3.694233 1.465744 6.292603
v -3.716756 1.465744 6.283106
v -3.736242 1.465744 6.26835
v -3.604141 1.465744 6.26835
v -3.623627 1.465744 6.283106
v -3.64615 1.465744 6.292603
v -3.580099 1.465744 6.178201
v -3.577063 1.465744 6.202455
v -3.580099 1.465744 6.226708
v -3.64615 1.465744 6.112306
v -3.623627 1.465744 6.121803
v -3.604141 1.465744 6.136559
v -3.722032 2.216559 6.156569
v -3.702959 2.220032 6.1457
v -3.684009 2.216559 6.134616
v -3.73585 2.216559 6.224407
v -3.735726 2.220032 6.202455
v -3.73585 2.216559 6.180502
v -3.684009 2.216559 6.270293
v -3.702959 2.220032 6.25921
v -3.722032 2.216559 6.24834
v -3.618351 2.216559 6.24834
v -3.637424 2.220032 6.25921
v -3.656373 2.216559 6.270293
v -3.604533 2.216559 6.180502
v -3.604656 2.220032 6.202455
v -3.604533 2.216559 6.224407
v -3.656373 2.216559 6.134616
v -3.637424 2.220032 6.1457
v -3.618351 2.216559 6.156569
v -3.75084 2.085123 6.249017
v -3.748511 2.147664 6.247673
v -3.742657 2.188546 6.244293
v -3.670191 1.888047 6.295964
v -3.670191 1.758012 6.295964
v -3.670191 1.615098 6.295964
v -3.670191 2.085123 6.109329
v -3.670191 2.147664 6.112019
v -3.670191 2.188546 6.118779
v -3.751173 1.888047 6.1557
v -3.751173 1.758012 6.1557
v -3.751173 1.615098 6.1557
v -3.589543 2.085123 6.155892
v -3.591872 2.147664 6.157237
v -3.597726 2.188546 6.160617
v -3.58921 1.888047 6.249209
v -3.58921 1.758012 6.249209
v -3.58921 1.615098 6.249209
v -3.751173 1.615098 6.249209
v -3.751173 1.758012 6.249209
v -3.751173 1.888047 6.249209
v -3.670191 2.188546 6.28613
v -3.670191 2.147664 6.29289
v -3.670191 2.085123 6.29558
v -3.670191 1.615098 6.108945
v -3.670191 1.758012 6.108945
v -3.670191 1.888047 6.108945
v -3.742657 2.188546 6.160617
v -3.748511 2.147664 6.157237
v -3.75084 2.085123 6.155892
v -3.58921 1.615098 6.1557
v -3.58921 1.758012 6.1557
v -3.58921 1.888047 6.1557
v -3.597726 2.188546 6.244293
v -3.591872 2.147664 6.247673
v -3.589543 2.085123 6.249017
v -3.580099 1.998765 6.226708
v -3.577063 1.998765 6.202455
v -3.580099 1.998765 6.178201
v -3.760283 1.998765 6.178201
v -3.76332 1.998765 6.202455
v -3.760283 1.998765 6.226708
v -3.64615 1.998765 6.292603
v -3.623627 1.998765 6.283106
v -3.604141 1.998765 6.26835
v -3.604141 1.998765 6.136559
v -3.623627 1.998765 6.121803
v -3.64615 1.998765 6.112306
v -3.694233 1.998765 6.112306
v -3.716756 1.998765 6.121803
v -3.736242 1.998765 6.136559
v -3.736242 1.998765 6.26835
v -3.716756 1.998765 6.283106
v -3.694233 1.998765 6.292603
v -3.69411 2.085186 6.29221
v -3.716535 2.085251 6.282725
v -3.735962 2.085186 6.268046
v -3.693253 2.148176 6.289451
v -3.714993 2.148688 6.280055
v -3.734002 2.148176 6.265925
v -3.690679 2.190459 6.282312
v -3.710846 2.192133 6.272871
v -3.729106 2.190459 6.260126
v -3.735962 2.085186 6.136863
v -3.716535 2.085251 6.122184
v -3.69411 2.085186 6.1127
v -3.734002 2.148176 6.138984
v -3.714993 2.148688 6.124855
v -3.693253 2.148176 6.115458
v -3.729106 2.190459 6.144783
v -3.710846 2.192133 6.132039
v -3.690679 2.190459 6.122598
v -3.646272 2.085186 6.1127
v -3.623847 2.085251 6.122184
v -3.604421 2.085186 6.136863
v -3.647129 2.148176 6.115458
v -3.625389 2.148688 6.124855
v -3.606381 2.148176 6.138984
v -3.649704 2.190459 6.122598
v -3.629537 2.192133 6.132039
v -3.611277 2.190459 6.144783
v -3.604421 2.085186 6.268046
v -3.623847 2.085251 6.282725
v -3.646272 2.085186 6.29221
v -3.606381 2.148176 6.265925
v -3.625389 2.148688 6.280055
v -3.647129 2.148176 6.289451
v -3.611277 2.190459 6.260126
v -3.629537 2.192133 6.272871
v -3.649704 2.190459 6.282312
v -3.759881 2.085186 6.226618
v -3.76288 2.085251 6.202455
v -3.759881 2.085186 6.178292
v -3.757064 2.148176 6.225981
v -3.759796 2.148688 6.202455
v -3.757064 2.148176 6.178928
v -3.749593 2.190459 6.224641
v -3.751501 2.192133 6.202455
v -3.749593 2.190459 6.180269
v -3.580502 2.085186 6.178292
v -3.577503 2.085251 6.202455
v -3.580502 2.085186 6.226618
v -3.583319 2.148176 6.178928
v -3.580587 2.148688 6.202455
v -3.583319 2.148176 6.225981
v -3.590789 2.190459 6.180269
v -3.588882 2.192133 6.202455
v -3.590789 2.190459 6.224641
v -3.670191 2.244596 6.202455
v -3.714889 2.23146 6.176649
v -3.690373 2.236789 6.167498
v -3.670191 2.23146 6.150843
v -3.650009 2.236789 6.167498
v -3.625494 2.23146 6.176649
v -3.629827 2.236789 6.202455
v -3.625494 2.23146 6.228261
v -3.650009 2.236789 6.237411
v -3.670191 2.23146 6.254066
v -3.690373 2.236789 6.237411
v -3.714889 2.23146 6.228261
v -3.710556 2.236789 6.202455
v -3.580099 1.615098 6.178201
v -3.577063 1.615098 6.202455
v -3.580099 1.615098 6.226708
v -3.580099 1.758012 6.178201
v -3.577063 1.758012 6.202455
v -3.580099 1.758012 6.226708
v -3.580099 1.888047 6.178201
v -3.577063 1.888047 6.202455
v -3.580099 1.888047 6.226708
v -3.760283 1.615098 6.226708
v -3.76332 1.615098 6.202455
v -3.760283 1.615098 6.178201
v -3.760283 1.758012 6.226708
v -3.76332 1.758012 6.202455
v -3.760283 1.758012 6.178201
v -3.760283 1.888047 6.226708
v -3.76332 1.888047 6.202455
v -3.760283 1.888047 6.178201
v -3.604141 1.615098 6.26835
v -3.623627 1.615098 6.283106
v -3.64615 1.615098 6.292603
v -3.604141 1.758012 6.26835
v -3.623627 1.758012 6.283106
v -3.64615 1.758012 6.292603
v -3.604141 1.888047 6.26835
v -3.623627 1.888047 6.283106
v -3.64615 1.888047 6.292603
v -3.64615 1.615098 6.112306
v -3.623627 1.615098 6.121803
v -3.604141 1.615098 6.136559
v -3.64615 1.758012 6.112306
v -3.623627 1.758012 6.121803
v -3.604141 1.758012 6.136559
v -3.64615 1.888047 6.112306
v -3.623627 1.888047 6.121803
v -3.604141 1.888047 6.136559
v -3.736242 1.615098 6.136559
v -3.716756 1.615098 6.121803
v -3.694233 1.615098 6.112306
v -3.736242 1.758012 6.136559
v -3.716756 1.758012 6.121803
v -3.694233 1.758012 6.112306
v -3.736242 1.888047 6.136559
v -3.716756 1.888047 6.121803
v -3.694233 1.888047 6.112306
v -3.694233 1.615098 6.292603
v -3.716756 1.615098 6.283106
v -3.736242 1.615098 6.26835
v -3.694233 1.758012 6.292603
v -3.716756 1.758012 6.283106
v -3.736242 1.758012 6.26835
v -3.694233 1.888047 6.292603
v -3.716756 1.888047 6.283106
v -3.736242 1.888047 6.26835
v -4.860627 -0.000678 6.672103
v -3.965996 1.446546 6.672103
v -4.860627 -0.000678 2.292245
v -3.965996 1.446546 2.292245
v -3.413403 0.108927 6.520866
v -3.413403 1.336942 6.520866
v -3.413403 0.108927 2.443482
v -3.413403 1.336942 2.443482
v -3.413403 1.446546 2.292245
v -3.413403 -0.000678 2.292245
v -3.413403 -0.000678 6.672103
v -3.413403 1.446546 6.672103
v -3.413403 1.446546 2.292245
v -3.413403 -0.000678 2.292245
v -3.413403 -0.000678 6.672103
v -3.413403 1.446546 6.672103
v -3.799598 0.322004 2.244025
v -3.799598 0.208658 2.244025
v -3.799598 0.322004 2.230136
v -3.799598 0.208658 2.230136
v -3.60177 0.322004 2.244025
v -3.60177 0.208658 2.244025
v -3.60177 0.322004 2.178763
v -3.60177 0.208658 2.178763
v -3.667713 0.322004 2.198225
v -3.733656 0.322004 2.216777
v -3.733656 0.208658 2.216777
v -3.667713 0.208658 2.198225
v -3.733656 0.322004 2.244025
v -3.667713 0.322004 2.244025
v -3.667713 0.208658 2.244025
v -3.733656 0.208658 2.244025
v -3.799598 0.265901 2.244025
v -3.799598 0.265901 2.230136
v -3.60177 0.265901 2.178763
v -3.60177 0.265901 2.244025
v -3.667713 0.265901 2.244025
v -3.733656 0.265901 2.244025
v -3.733656 0.265901 2.216777
v -3.667713 0.265901 2.198225
v -3.836328 0.186417 2.337118
v -3.836328 0.33974 2.337118
v -3.836328 0.186417 2.238364
v -3.836328 0.33974 2.238364
v -3.573244 0.186417 2.337118
v -3.573244 0.33974 2.337118
v -3.573244 0.186417 2.238364
v -3.573244 0.33974 2.238364
vn 0 1 0
vn 0 -1 0
vn -1 0 0
vn -0.9942 0 0.1076
vn -0.9398 0 0.3416
vn -0.7754 0 0.6314
vn -0.3434 0 0.9392
vn 0 0 1
vn 0.3434 0 0.9392
vn 0.7754 0 0.6314
vn 0.9398 0 0.3416
vn 0.9942 0 0.1076
vn 1 0 0
vn 0.9942 0 -0.1076
vn 0.9398 0 -0.3417
vn 0.7755 0 -0.6314
vn 0.3433 0 -0.9392
vn 0 0 -1
vn -0.3433 0 -0.9392
vn -0.7755 0 -0.6314
vn -0.9398 0 -0.3417
vn -0.9942 0 -0.1076
vn 0.3921 -0.0469 -0.9187
vn 0.5995 -0.0469 -0.799
vn 0.3953 -0.1815 -0.9004
vn 0.5822 -0.1814 -0.7926
vn 0.139 -0.0046 -0.9903
vn 0.389 -0.0049 -0.9212
vn 0.6033 -0.0049 -0.7975
vn 0.7881 -0.0046 -0.6155
vn 0.7849 -0.0439 -0.618
vn 0.767 -0.1675 -0.6195
vn 0.6858 -0.4189 -0.5952
vn 0.5157 -0.478 -0.7111
vn 0.358 -0.4779 -0.8021
vn 0.1726 -0.4189 -0.8915
vn 0.153 -0.1675 -0.9739
vn 0.1428 -0.0439 -0.9888
vn 0.5995 -0.0469 0.799
vn 0.3921 -0.0469 0.9187
vn 0.5822 -0.1814 0.7926
vn 0.3953 -0.1815 0.9005
vn 0.7881 -0.0046 0.6155
vn 0.6033 -0.0049 0.7975
vn 0.389 -0.0049 0.9212
vn 0.139 -0.0046 0.9903
vn 0.1428 -0.0439 0.9888
vn 0.153 -0.1675 0.9739
vn 0.1726 -0.4189 0.8915
vn 0.358 -0.4779 0.8021
vn 0.5157 -0.478 0.7111
vn 0.6858 -0.4189 0.5952
vn 0.767 -0.1675 0.6195
vn 0.7849 -0.0439 0.618
vn -0.3921 -0.0469 0.9187
vn -0.5996 -0.0469 0.799
vn -0.3953 -0.1815 0.9005
vn -0.5822 -0.1814 0.7926
vn -0.139 -0.0046 0.9903
vn -0.389 -0.0049 0.9212
vn -0.6033 -0.0049 0.7975
vn -0.7881 -0.0046 0.6155
vn -0.7849 -0.0439 0.618
vn -0.7669 -0.1675 0.6195
vn -0.6858 -0.4189 0.5952
vn -0.5157 -0.478 0.7111
vn -0.358 -0.4779 0.8021
vn -0.1726 -0.4189 0.8915
vn -0.153 -0.1675 0.9739
vn -0.1428 -0.0439 0.9888
vn -0.5996 -0.0469 -0.799
vn -0.3921 -0.0469 -0.9187
vn -0.5822 -0.1814 -0.7926
vn -0.3953 -0.1814 -0.9005
vn -0.7881 -0.0046 -0.6155
vn -0.6033 -0.0049 -0.7975
vn -0.389 -0.0049 -0.9212
vn -0.139 -0.0046 -0.9903
vn -0.1428 -0.0439 -0.9888
vn -0.153 -0.1675 -0.9739
vn -0.1726 -0.4189 -0.8915
vn -0.358 -0.4779 -0.8021
vn -0.5157 -0.478 -0.7111
vn -0.6858 -0.4189 -0.5952
vn -0.767 -0.1675 -0.6195
vn -0.7849 -0.0439 -0.618
vn 0.9917 -0.0469 -0.1197
vn 0.9917 -0.0469 0.1197
vn 0.9775 -0.1814 -0.1079
vn 0.9775 -0.1814 0.1079
vn 0.9271 -0.0046 -0.3748
vn 0.9923 -0.0049 -0.1237
vn 0.9923 -0.0049 0.1237
vn 0.9271 -0.0046 0.3748
vn 0.9277 -0.0439 0.3707
vn 0.9199 -0.1675 0.3545
vn 0.8583 -0.4189 0.2963
vn 0.8736 -0.478 0.091
vn 0.8737 -0.478 -0.091
vn 0.8583 -0.4189 -0.2963
vn 0.9199 -0.1675 -0.3545
vn 0.9277 -0.0439 -0.3708
vn -0.9917 -0.0469 0.1197
vn -0.9917 -0.0469 -0.1197
vn -0.9775 -0.1814 0.1079
vn -0.9775 -0.1814 -0.1079
vn -0.9271 -0.0046 0.3748
vn -0.9923 -0.0049 0.1237
vn -0.9923 -0.0049 -0.1237
vn -0.9271 -0.0046 -0.3748
vn -0.9277 -0.0439 -0.3708
vn -0.9199 -0.1675 -0.3545
vn -0.8583 -0.4189 -0.2963
vn -0.8737 -0.478 -0.0911
vn -0.8736 -0.478 0.0911
vn -0.8583 -0.4189 0.2963
vn -0.9199 -0.1675 0.3545
vn -0.9277 -0.0439 0.3708
vn 0.2136 -0.9691 0.1233
vn 0 -0.9691 0.2466
vn -0.2136 -0.9691 0.1233
vn -0.2136 -0.9691 -0.1233
vn 0 -0.9691 -0.2466
vn 0.2136 -0.9691 -0.1233
vn 0.5933 -0.7285 0.3425
vn 0.3687 -0.8168 0.4437
vn 0.5687 -0.8168 0.0975
vn 0 -0.7285 0.6851
vn -0.1999 -0.8168 0.5412
vn 0.1999 -0.8168 0.5412
vn -0.5933 -0.7285 0.3425
vn -0.5686 -0.8168 0.0975
vn -0.3687 -0.8168 0.4437
vn -0.5933 -0.7285 -0.3426
vn -0.3687 -0.8168 -0.4437
vn -0.5686 -0.8168 -0.0975
vn 0 -0.7285 -0.6851
vn 0.1999 -0.8168 -0.5412
vn -0.1999 -0.8168 -0.5412
vn 0.5933 -0.7285 -0.3425
vn 0.5686 -0.8168 -0.0975
vn 0.3687 -0.8168 -0.4437
vn -0.9923 0 0.1242
vn -0.9923 0 -0.1242
vn -0.9269 0 0.3753
vn -0.9269 0 -0.3753
vn 0.9923 0 -0.1242
vn 0.9923 0 0.1242
vn 0.9269 0 -0.3753
vn 0.9269 0 0.3753
vn -0.6037 0 -0.7972
vn -0.3885 0 -0.9214
vn -0.7885 0 -0.6151
vn -0.1384 0 -0.9904
vn -0.3885 0 0.9214
vn -0.6037 0 0.7972
vn -0.1384 0 0.9904
vn -0.7885 0 0.6151
vn 0.6037 0 0.7972
vn 0.3885 0 0.9214
vn 0.7885 0 0.6151
vn 0.1384 0 0.9904
vn 0.3885 0 -0.9214
vn 0.6037 0 -0.7972
vn 0.1384 0 -0.9904
vn 0.7885 0 -0.6151
vn -0.8506 0.5258 0
vn 0.2831 0 0.9591
vn 0.1986 0 0.9801
vn 0.2708 0 0.9626
vt 0.000000 0.045000
vt 0.003425 0.027779
vt 0.013180 0.013180
vt 0.027779 0.003425
vt 0.045000 0.000000
vt 0.955000 0.000000
vt 0.972221 0.003425
vt 0.986820 0.013180
vt 0.996575 0.027779
vt 1.000000 0.045000
vt 1.000000 0.955000
vt 0.996575 0.972221
vt 0.986820 0.986820
vt 0.972221 0.996575
vt 0.955000 1.000000
vt 0.045000 1.000000
vt 0.027779 0.996575
vt 0.013180 0.986820
vt 0.003425 0.972221
vt 0.000000 0.955000
vt 0.000000 0.000000
vt 0.375000 0.000000
vt 0.625000 0.000000
vt 0.625000 0.250000
vt 0.375000 0.250000
vt 0.625000 0.500000
vt 0.375000 0.500000
vt 0.375000 0.750000
vt 0.625000 0.750000
vt 0.625000 1.000000
vt 0.375000 1.000000
vt 0.125000 0.500000
vt 0.125000 0.750000
vt 0.875000 0.500000
vt 0.875000 0.750000
vt 0.606066 0.508632
vt 0.393934 0.508632
vt 0.393934 0.741367
vt 0.606066 0.741368
vt 0.498742 0.000000
vt 0.498742 0.250000
vt 0.498742 0.416667
vt 0.625000 0.416667
vt 0.498742 0.500000
vt 0.498742 0.750000
vt 0.498742 0.916667
vt 0.625000 0.916667
vt 0.498742 1.000000
vt 0.291667 0.500000
vt 0.291667 0.750000
vt 0.791667 0.500000
vt 0.791667 0.750000
vt 0.708333 0.500000
vt 0.708333 0.750000
vt 0.208333 0.500000
vt 0.208333 0.750000
vt 0.625000 0.833333
vt 0.498742 0.833333
vt 0.625000 0.333333
vt 0.498742 0.333333
vt 0.375000 0.333333
vt 0.375000 0.416667
vt 0.375000 0.833333
vt 0.375000 0.916667
s 0
usemtl 
f 2/1/1 5/2/1 4/3/1 3/4/1 1/5/1 7/6/1 10/7/1 9/8/1 8/9/1 6/10/1 17/11/1 20/12/1 19/13/1 18/14/1 16/15/1 11/16/1 13/17/1 14/18/1 15/19/1 12/20/1
f 22/1/2 32/20/2 35/19/2 34/18/2 33/17/2 31/16/2 36/15/2 38/14/2 39/13/2 40/12/2 37/11/2 26/10/2 28/9/2 29/8/2 30/7/2 27/6/2 21/5/2 23/4/2 24/3/2 25/2/2
f 2/1/3 12/20/3 32/20/3 22/1/3
f 5/2/4 2/1/4 22/1/4 25/2/4
f 4/3/5 5/2/5 25/2/5 24/3/5
f 3/4/6 4/3/6 24/3/6 23/4/6
f 1/5/7 3/4/7 23/4/7 21/5/7
f 7/6/8 1/5/8 21/5/8 27/6/8
f 10/7/9 7/6/9 27/6/9 30/7/9
f 9/8/10 10/7/10 30/7/10 29/8/10
f 8/9/11 9/8/11 29/8/11 28/9/11
f 6/10/12 8/9/12 28/9/12 26/10/12
f 17/11/13 6/10/13 26/10/13 37/11/13
f 20/12/14 17/11/14 37/11/14 40/12/14
f 19/13/15 20/12/15 40/12/15 39/13/15
f 18/14/16 19/13/16 39/13/16 38/14/16
f 16/15/17 18/14/17 38/14/17 36/15/17
f 11/16/18 16/15/18 36/15/18 31/16/18
f 13/17/19 11/16/19 31/16/19 33/17/19
f 14/18/20 13/17/20 33/17/20 34/18/20
f 15/19/21 14/18/21 34/18/21 35/19/21
f 12/20/22 15/19/22 35/19/22 32/20/22
usemtl 材质.045
f 149/21/23 150/21/23 153/21/23 152/21/23
f 150/21/24 151/21/24 154/21/24 153/21/24
f 152/21/25 153/21/25 156/21/25 155/21/25
f 153/21/26 154/21/26 157/21/26 156/21/26
f 54/21/27 148/21/27 149/21/27 118/21/27
f 148/21/28 147/21/28 150/21/28 149/21/28
f 147/21/29 146/21/29 151/21/29 150/21/29
f 146/21/30 53/21/30 95/21/30 151/21/30
f 151/21/31 95/21/31 96/21/31 154/21/31
f 154/21/32 96/21/32 97/21/32 157/21/32
f 157/21/33 97/21/33 49/21/33 85/21/33
f 156/21/34 157/21/34 85/21/34 84/21/34
f 155/21/35 156/21/35 84/21/35 83/21/35
f 116/21/36 155/21/36 83/21/36 50/21/36
f 117/21/37 152/21/37 155/21/37 116/21/37
f 118/21/38 149/21/38 152/21/38 117/21/38
f 158/21/39 159/21/39 162/21/39 161/21/39
f 159/21/40 160/21/40 163/21/40 162/21/40
f 161/21/41 162/21/41 165/21/41 164/21/41
f 162/21/42 163/21/42 166/21/42 165/21/42
f 56/21/43 145/21/43 158/21/43 124/21/43
f 145/21/44 144/21/44 159/21/44 158/21/44
f 144/21/45 143/21/45 160/21/45 159/21/45
f 143/21/46 55/21/46 101/21/46 160/21/46
f 160/21/47 101/21/47 102/21/47 163/21/47
f 163/21/48 102/21/48 103/21/48 166/21/48
f 166/21/49 103/21/49 47/21/49 79/21/49
f 165/21/50 166/21/50 79/21/50 78/21/50
f 164/21/51 165/21/51 78/21/51 77/21/51
f 122/21/52 164/21/52 77/21/52 48/21/52
f 123/21/53 161/21/53 164/21/53 122/21/53
f 124/21/54 158/21/54 161/21/54 123/21/54
f 167/21/55 168/21/55 171/21/55 170/21/55
f 168/21/56 169/21/56 172/21/56 171/21/56
f 170/21/57 171/21/57 174/21/57 173/21/57
f 171/21/58 172/21/58 175/21/58 174/21/58
f 55/21/59 142/21/59 167/21/59 101/21/59
f 142/21/60 141/21/60 168/21/60 167/21/60
f 141/21/61 140/21/61 169/21/61 168/21/61
f 140/21/62 57/21/62 107/21/62 169/21/62
f 169/21/63 107/21/63 108/21/63 172/21/63
f 172/21/64 108/21/64 109/21/64 175/21/64
f 175/21/65 109/21/65 52/21/65 94/21/65
f 174/21/66 175/21/66 94/21/66 93/21/66
f 173/21/67 174/21/67 93/21/67 92/21/67
f 103/21/68 173/21/68 92/21/68 47/21/68
f 102/21/69 170/21/69 173/21/69 103/21/69
f 101/21/70 167/21/70 170/21/70 102/21/70
f 176/21/71 177/21/71 180/21/71 179/21/71
f 177/21/72 178/21/72 181/21/72 180/21/72
f 179/21/73 180/21/73 183/21/73 182/21/73
f 180/21/74 181/21/74 184/21/74 183/21/74
f 58/21/75 139/21/75 176/21/75 130/21/75
f 139/21/76 138/21/76 177/21/76 176/21/76
f 138/21/77 137/21/77 178/21/77 177/21/77
f 137/21/78 54/21/78 118/21/78 178/21/78
f 178/21/79 118/21/79 117/21/79 181/21/79
f 181/21/80 117/21/80 116/21/80 184/21/80
f 184/21/81 116/21/81 50/21/81 88/21/81
f 183/21/82 184/21/82 88/21/82 87/21/82
f 182/21/83 183/21/83 87/21/83 86/21/83
f 128/21/84 182/21/84 86/21/84 51/21/84
f 129/21/85 179/21/85 182/21/85 128/21/85
f 130/21/86 176/21/86 179/21/86 129/21/86
f 185/21/87 186/21/87 189/21/87 188/21/87
f 186/21/88 187/21/88 190/21/88 189/21/88
f 188/21/89 189/21/89 192/21/89 191/21/89
f 189/21/90 190/21/90 193/21/90 192/21/90
f 53/21/91 136/21/91 185/21/91 95/21/91
f 136/21/92 135/21/92 186/21/92 185/21/92
f 135/21/93 134/21/93 187/21/93 186/21/93
f 134/21/94 56/21/94 124/21/94 187/21/94
f 187/21/95 124/21/95 123/21/95 190/21/95
f 190/21/96 123/21/96 122/21/96 193/21/96
f 193/21/97 122/21/97 48/21/97 82/21/97
f 192/21/98 193/21/98 82/21/98 81/21/98
f 191/21/99 192/21/99 81/21/99 80/21/99
f 97/21/100 191/21/100 80/21/100 49/21/100
f 96/21/101 188/21/101 191/21/101 97/21/101
f 95/21/102 185/21/102 188/21/102 96/21/102
f 194/21/103 195/21/103 198/21/103 197/21/103
f 195/21/104 196/21/104 199/21/104 198/21/104
f 197/21/105 198/21/105 201/21/105 200/21/105
f 198/21/106 199/21/106 202/21/106 201/21/106
f 57/21/107 133/21/107 194/21/107 107/21/107
f 133/21/108 132/21/108 195/21/108 194/21/108
f 132/21/109 131/21/109 196/21/109 195/21/109
f 131/21/110 58/21/110 130/21/110 196/21/110
f 196/21/111 130/21/111 129/21/111 199/21/111
f 199/21/112 129/21/112 128/21/112 202/21/112
f 202/21/113 128/21/113 51/21/113 91/21/113
f 201/21/114 202/21/114 91/21/114 90/21/114
f 200/21/115 201/21/115 90/21/115 89/21/115
f 109/21/116 200/21/116 89/21/116 52/21/116
f 108/21/117 197/21/117 200/21/117 109/21/117
f 107/21/118 194/21/118 197/21/118 108/21/118
f 204/21/119 205/21/119 203/21/119 215/21/119
f 206/21/120 207/21/120 203/21/120 205/21/120
f 208/21/121 209/21/121 203/21/121 207/21/121
f 210/21/122 211/21/122 203/21/122 209/21/122
f 212/21/123 213/21/123 203/21/123 211/21/123
f 214/21/124 215/21/124 203/21/124 213/21/124
f 48/21/125 77/21/125 204/21/125 82/21/125
f 77/21/126 78/21/126 205/21/126 204/21/126
f 82/21/127 204/21/127 215/21/127 81/21/127
f 47/21/128 92/21/128 206/21/128 79/21/128
f 92/21/129 93/21/129 207/21/129 206/21/129
f 79/21/130 206/21/130 205/21/130 78/21/130
f 52/21/131 89/21/131 208/21/131 94/21/131
f 89/21/132 90/21/132 209/21/132 208/21/132
f 94/21/133 208/21/133 207/21/133 93/21/133
f 51/21/134 86/21/134 210/21/134 91/21/134
f 86/21/135 87/21/135 211/21/135 210/21/135
f 91/21/136 210/21/136 209/21/136 90/21/136
f 50/21/137 83/21/137 212/21/137 88/21/137
f 83/21/138 84/21/138 213/21/138 212/21/138
f 88/21/139 212/21/139 211/21/139 87/21/139
f 49/21/140 80/21/140 214/21/140 85/21/140
f 80/21/141 81/21/141 215/21/141 214/21/141
f 85/21/142 214/21/142 213/21/142 84/21/142
f 216/21/143 217/21/143 220/21/143 219/21/143
f 217/21/144 218/21/144 221/21/144 220/21/144
f 219/21/143 220/21/143 223/21/143 222/21/143
f 220/21/144 221/21/144 224/21/144 223/21/144
f 46/21/145 71/21/145 216/21/145 125/21/145
f 71/21/143 72/21/143 217/21/143 216/21/143
f 72/21/144 73/21/144 218/21/144 217/21/144
f 73/21/146 45/21/146 112/21/146 218/21/146
f 218/21/146 112/21/146 111/21/146 221/21/146
f 221/21/146 111/21/146 110/21/146 224/21/146
f 224/21/146 110/21/146 58/21/146 131/21/146
f 223/21/144 224/21/144 131/21/144 132/21/144
f 222/21/143 223/21/143 132/21/143 133/21/143
f 127/21/145 222/21/145 133/21/145 57/21/145
f 126/21/145 219/21/145 222/21/145 127/21/145
f 125/21/145 216/21/145 219/21/145 126/21/145
f 225/21/147 226/21/147 229/21/147 228/21/147
f 226/21/148 227/21/148 230/21/148 229/21/148
f 228/21/147 229/21/147 232/21/147 231/21/147
f 229/21/148 230/21/148 233/21/148 232/21/148
f 43/21/149 62/21/149 225/21/149 113/21/149
f 62/21/147 63/21/147 226/21/147 225/21/147
f 63/21/148 64/21/148 227/21/148 226/21/148
f 64/21/150 42/21/150 106/21/150 227/21/150
f 227/21/150 106/21/150 105/21/150 230/21/150
f 230/21/150 105/21/150 104/21/150 233/21/150
f 233/21/150 104/21/150 56/21/150 134/21/150
f 232/21/148 233/21/148 134/21/148 135/21/148
f 231/21/147 232/21/147 135/21/147 136/21/147
f 115/21/149 231/21/149 136/21/149 53/21/149
f 114/21/149 228/21/149 231/21/149 115/21/149
f 113/21/149 225/21/149 228/21/149 114/21/149
f 234/21/151 235/21/151 238/21/151 237/21/151
f 235/21/152 236/21/152 239/21/152 238/21/152
f 237/21/151 238/21/151 241/21/151 240/21/151
f 238/21/152 239/21/152 242/21/152 241/21/152
f 45/21/153 68/21/153 234/21/153 112/21/153
f 68/21/151 69/21/151 235/21/151 234/21/151
f 69/21/152 70/21/152 236/21/152 235/21/152
f 70/21/154 44/21/154 100/21/154 236/21/154
f 236/21/154 100/21/154 99/21/154 239/21/154
f 239/21/154 99/21/154 98/21/154 242/21/154
f 242/21/154 98/21/154 54/21/154 137/21/154
f 241/21/152 242/21/152 137/21/152 138/21/152
f 240/21/151 241/21/151 138/21/151 139/21/151
f 110/21/153 240/21/153 139/21/153 58/21/153
f 111/21/153 237/21/153 240/21/153 110/21/153
f 112/21/153 234/21/153 237/21/153 111/21/153
f 243/21/155 244/21/155 247/21/155 246/21/155
f 244/21/156 245/21/156 248/21/156 247/21/156
f 246/21/155 247/21/155 250/21/155 249/21/155
f 247/21/156 248/21/156 251/21/156 250/21/156
f 41/21/157 74/21/157 243/21/157 119/21/157
f 74/21/155 75/21/155 244/21/155 243/21/155
f 75/21/156 76/21/156 245/21/156 244/21/156
f 76/21/158 46/21/158 125/21/158 245/21/158
f 245/21/158 125/21/158 126/21/158 248/21/158
f 248/21/158 126/21/158 127/21/158 251/21/158
f 251/21/158 127/21/158 57/21/158 140/21/158
f 250/21/156 251/21/156 140/21/156 141/21/156
f 249/21/155 250/21/155 141/21/155 142/21/155
f 121/21/157 249/21/157 142/21/157 55/21/157
f 120/21/157 246/21/157 249/21/157 121/21/157
f 119/21/157 243/21/157 246/21/157 120/21/157
f 252/21/159 253/21/159 256/21/159 255/21/159
f 253/21/160 254/21/160 257/21/160 256/21/160
f 255/21/159 256/21/159 259/21/159 258/21/159
f 256/21/160 257/21/160 260/21/160 259/21/160
f 42/21/161 59/21/161 252/21/161 106/21/161
f 59/21/159 60/21/159 253/21/159 252/21/159
f 60/21/160 61/21/160 254/21/160 253/21/160
f 61/21/162 41/21/162 119/21/162 254/21/162
f 254/21/162 119/21/162 120/21/162 257/21/162
f 257/21/162 120/21/162 121/21/162 260/21/162
f 260/21/162 121/21/162 55/21/162 143/21/162
f 259/21/160 260/21/160 143/21/160 144/21/160
f 258/21/159 259/21/159 144/21/159 145/21/159
f 104/21/161 258/21/161 145/21/161 56/21/161
f 105/21/161 255/21/161 258/21/161 104/21/161
f 106/21/161 252/21/161 255/21/161 105/21/161
f 261/21/163 262/21/163 265/21/163 264/21/163
f 262/21/164 263/21/164 266/21/164 265/21/164
f 264/21/163 265/21/163 268/21/163 267/21/163
f 265/21/164 266/21/164 269/21/164 268/21/164
f 44/21/165 65/21/165 261/21/165 100/21/165
f 65/21/163 66/21/163 262/21/163 261/21/163
f 66/21/164 67/21/164 263/21/164 262/21/164
f 67/21/166 43/21/166 113/21/166 263/21/166
f 263/21/166 113/21/166 114/21/166 266/21/166
f 266/21/166 114/21/166 115/21/166 269/21/166
f 269/21/166 115/21/166 53/21/166 146/21/166
f 268/21/164 269/21/164 146/21/164 147/21/164
f 267/21/163 268/21/163 147/21/163 148/21/163
f 98/21/165 267/21/165 148/21/165 54/21/165
f 99/21/165 264/21/165 267/21/165 98/21/165
f 100/21/165 261/21/165 264/21/165 99/21/165
f 272/32/2 279/27/2 280/28/2 270/33/2
f 282/21/1 283/21/1 279/21/1 278/21/1
f 283/27/1 284/28/1 280/28/1 279/27/1
f 285/29/1 282/26/1 278/26/1 281/29/1
f 284/21/1 285/21/1 281/21/1 280/21/1
f 302/40/13 287/23/13 289/24/13 303/41/13
f 309/42/168 297/43/168 293/26/168 304/44/168
f 304/44/3 293/26/3 291/29/3 305/45/3
f 307/46/18 301/47/18 287/30/18 302/48/18
f 294/49/2 292/27/2 290/28/2 299/50/2
f 296/51/1 289/34/1 287/35/1 301/52/1
f 293/26/1 297/53/1 300/54/1 291/29/1
f 297/53/1 296/51/1 301/52/1 300/54/1
f 288/32/2 295/55/2 298/56/2 286/33/2
f 295/55/2 294/49/2 299/50/2 298/56/2
f 305/45/18 291/29/18 300/57/18 306/58/18
f 306/58/18 300/57/18 301/47/18 307/46/18
f 303/41/169 289/24/169 296/59/169 308/60/169
f 308/60/170 296/59/170 297/43/170 309/42/170
f 295/61/170 308/60/170 309/42/170 294/62/170
f 288/25/169 303/41/169 308/60/169 295/61/169
f 299/63/18 306/58/18 307/46/18 298/64/18
f 290/28/18 305/45/18 306/58/18 299/63/18
f 298/64/18 307/46/18 302/48/18 286/31/18
f 292/27/3 304/44/3 305/45/3 290/28/3
f 294/62/168 309/42/168 304/44/168 292/27/168
f 286/22/13 302/40/13 303/41/13 288/25/13
f 310/22/3 311/23/3 313/24/3 312/25/3
f 312/25/18 313/24/18 317/26/18 316/27/18
f 316/27/13 317/26/13 315/29/13 314/28/13
f 314/28/8 315/29/8 311/30/8 310/31/8
f 312/32/2 316/27/2 314/28/2 310/33/2
f 317/26/1 313/34/1 311/35/1 315/29/1
usemtl 材质.046
f 270/22/167 271/23/167 273/24/167 272/25/167
f 272/25/18 273/24/18 278/26/18 279/27/18
f 280/28/8 281/29/8 271/30/8 270/31/8
f 278/26/1 273/34/1 271/35/1 281/29/1
f 277/36/13 276/37/13 283/27/13 282/26/13
f 276/37/13 274/38/13 284/28/13 283/27/13
f 275/39/13 277/36/13 282/26/13 285/29/13
f 274/38/13 275/39/13 285/29/13 284/28/13
