# Blender 4.5.2 LTS
# www.blender.org
mtllib fence.mtl
o fence
v 0 0.16453 0.870223
v -0.016602 0.16453 -2.422279
v 0 -0.008571 0.895267
v 0 -0.008571 -2.422279
v -1.578943 0.16453 -2.422279
v -1.595546 -0.008571 -2.422279
v -1.552423 -0.008571 -2.422279
v -1.5093 -0.008571 -2.422279
v -1.466177 -0.008571 -2.422279
v -1.423054 -0.008571 -2.422279
v -1.379931 -0.008571 -2.422279
v -1.336808 -0.008571 -2.42228
v -1.293685 -0.008571 -2.42228
v -1.250563 -0.008571 -2.42228
v -1.20744 -0.008571 -2.42228
v -1.164317 -0.008571 -2.42228
v -1.121194 -0.008571 -2.42228
v -1.078071 -0.008571 -2.42228
v -1.034948 -0.008571 -2.42228
v -0.991826 -0.008571 -2.42228
v -0.948703 -0.008571 -2.42228
v -0.90558 -0.008571 -2.42228
v -0.862457 -0.008571 -2.42228
v -0.819334 -0.008571 -2.42228
v -0.776211 -0.008571 -2.42228
v -0.733088 -0.008571 -2.42228
v -0.689966 -0.008571 -2.42228
v -0.646843 -0.008571 -2.42228
v -0.60372 -0.008571 -2.42228
v -0.560597 -0.008571 -2.42228
v -0.517474 -0.008571 -2.42228
v -0.474351 -0.008571 -2.42228
v -0.431229 -0.008571 -2.42228
v -0.388106 -0.008571 -2.42228
v -0.344983 -0.008571 -2.42228
v -0.30186 -0.008571 -2.42228
v -0.258737 -0.008571 -2.42228
v -0.215614 -0.008571 -2.42228
v -0.172491 -0.008571 -2.42228
v -0.129369 -0.008571 -2.42228
v -0.086246 -0.008571 -2.42228
v -0.043123 -0.008571 -2.42228
v -0.026521 0.16453 -2.422279
v -0.102848 0.16453 -2.422279
v -0.112766 0.16453 -2.422279
v -0.189094 0.16453 -2.422279
v -0.199012 0.16453 -2.422279
v -0.275339 0.16453 -2.422279
v -0.285258 0.16453 -2.422279
v -0.361585 0.16453 -2.422279
v -0.371503 0.16453 -2.422279
v -0.447831 0.16453 -2.422279
v -0.457749 0.16453 -2.422279
v -0.534077 0.16453 -2.422279
v -0.543995 0.16453 -2.422279
v -0.620322 0.16453 -2.422279
v -0.63024 0.16453 -2.422279
v -0.706568 0.16453 -2.422279
v -0.716486 0.16453 -2.422279
v -0.792814 0.16453 -2.422279
v -0.802732 0.16453 -2.422279
v -0.879059 0.16453 -2.422279
v -0.888978 0.16453 -2.422279
v -0.965305 0.16453 -2.422279
v -0.975223 0.16453 -2.422279
v -1.051551 0.16453 -2.422279
v -1.061469 0.16453 -2.422279
v -1.137797 0.16453 -2.422279
v -1.147715 0.16453 -2.422279
v -1.224042 0.16453 -2.422279
v -1.233961 0.16453 -2.422279
v -1.310288 0.16453 -2.422279
v -1.320206 0.16453 -2.422279
v -1.396534 0.16453 -2.422279
v -1.406452 0.16453 -2.422279
v -1.482779 0.16453 -2.422279
v -1.492698 0.16453 -2.422279
v -1.569025 0.16453 -2.422279
v 0 0.055592 0.895267
v 0 0.055592 -2.422279
v -1.595546 0.055592 -2.422279
v -0.043123 0.055592 -2.42228
v -0.086246 0.055592 -2.42228
v -0.129369 0.055592 -2.42228
v -0.172491 0.055592 -2.42228
v -0.215614 0.055592 -2.42228
v -0.258737 0.055592 -2.42228
v -0.30186 0.055592 -2.42228
v -0.344983 0.055592 -2.42228
v -0.388106 0.055592 -2.42228
v -0.431229 0.055592 -2.42228
v -0.474351 0.055592 -2.42228
v -0.517474 0.055592 -2.42228
v -0.560597 0.055592 -2.42228
v -0.60372 0.055592 -2.42228
v -0.646843 0.055592 -2.42228
v -0.689966 0.055592 -2.42228
v -0.733088 0.055592 -2.42228
v -0.776211 0.055592 -2.42228
v -0.819334 0.055592 -2.42228
v -0.862457 0.055592 -2.42228
v -0.90558 0.055592 -2.42228
v -0.948703 0.055592 -2.42228
v -0.991826 0.055592 -2.42228
v -1.034948 0.055592 -2.42228
v -1.078071 0.055592 -2.42228
v -1.121194 0.055592 -2.42228
v -1.164317 0.055592 -2.42228
v -1.20744 0.055592 -2.42228
v -1.250563 0.055592 -2.42228
v -1.293686 0.055592 -2.42228
v -1.336808 0.055592 -2.42228
v -1.379931 0.055592 -2.422279
v -1.423054 0.055592 -2.422279
v -1.466177 0.055592 -2.422279
v -1.5093 0.055592 -2.422279
v -1.552423 0.055592 -2.422279
v 0 0.082285 0.895267
v 0 0.082285 -2.422279
v -1.595546 0.082285 -2.422279
v -0.043123 0.082285 -2.42228
v -0.086246 0.082285 -2.42228
v -0.129369 0.082285 -2.42228
v -0.172491 0.082285 -2.42228
v -0.215614 0.082285 -2.42228
v -0.258737 0.082285 -2.42228
v -0.30186 0.082285 -2.42228
v -0.344983 0.082285 -2.42228
v -0.388106 0.082285 -2.42228
v -0.431229 0.082285 -2.42228
v -0.474351 0.082285 -2.42228
v -0.517474 0.082285 -2.42228
v -0.560597 0.082285 -2.42228
v -0.60372 0.082285 -2.42228
v -0.646843 0.082285 -2.42228
v -0.689966 0.082285 -2.42228
v -0.733088 0.082285 -2.42228
v -0.776211 0.082285 -2.42228
v -0.819334 0.082285 -2.42228
v -0.862457 0.082285 -2.42228
v -0.90558 0.082285 -2.42228
v -0.948703 0.082285 -2.42228
v -0.991826 0.082285 -2.42228
v -1.034948 0.082285 -2.42228
v -1.078071 0.082285 -2.42228
v -1.121194 0.082285 -2.42228
v -1.164317 0.082285 -2.42228
v -1.20744 0.082285 -2.42228
v -1.250563 0.082285 -2.42228
v -1.293686 0.082285 -2.42228
v -1.336808 0.082285 -2.42228
v -1.379931 0.082285 -2.422279
v -1.423054 0.082285 -2.422279
v -1.466177 0.082285 -2.422279
v -1.5093 0.082285 -2.422279
v -1.552423 0.082285 -2.422279
v 0 0.16453 0.855261
v 0 0.16453 0.740123
v 0 0.16453 0.725161
v 0 0.16453 0.610023
v 0 0.16453 0.595062
v 0 0.16453 0.479923
v 0 0.16453 0.464962
v 0 0.16453 0.349823
v 0 0.16453 0.334862
v 0 0.16453 0.219724
v 0 0.16453 0.204762
v 0 0.16453 0.089624
v 0 0.16453 0.074662
v 0 0.16453 -0.040476
v 0 0.16453 -0.055438
v 0 0.16453 -0.170576
v 0 0.16453 -0.185538
v 0 0.16453 -0.300676
v 0 0.16453 -0.315637
v 0 0.16453 -0.430776
v 0 0.16453 -0.445737
v 0 0.16453 -0.560876
v 0 0.16453 -0.575837
v 0 0.16453 -0.690976
v 0 0.16453 -0.705937
v 0 0.16453 -0.821075
v 0 0.16453 -0.836037
v 0 0.16453 -0.951175
v 0 0.16453 -0.966137
v 0 0.16453 -1.081275
v 0 0.16453 -1.096237
v 0 0.16453 -1.211375
v 0 0.16453 -1.226336
v 0 0.16453 -1.341475
v 0 0.16453 -1.356436
v 0 0.16453 -1.471575
v 0 0.16453 -1.486536
v 0 0.16453 -1.601675
v 0 0.16453 -1.616636
v 0 0.16453 -1.731791
v 0 0.16453 -1.74672
v 0 0.16453 -1.861874
v 0 0.16453 -1.876836
v 0 0.16453 -1.991974
v 0 0.16453 -2.006936
v 0 0.16453 -2.122074
v 0 0.16453 -2.137036
v 0 0.16453 -2.252178
v 0 0.16453 -2.267131
v 0 0.16453 -2.382274
v 0 -0.008571 -2.35723
v 0 -0.008571 -2.29218
v 0 -0.008571 -2.22713
v 0 -0.008571 -2.16208
v 0 -0.008571 -2.09703
v 0 -0.008571 -2.03198
v 0 -0.008571 -1.96693
v 0 -0.008571 -1.90188
v 0 -0.008571 -1.83683
v 0 -0.008571 -1.77178
v 0 -0.008571 -1.70673
v 0 -0.008571 -1.64168
v 0 -0.008571 -1.576631
v 0 -0.008571 -1.511581
v 0 -0.008571 -1.446531
v 0 -0.008571 -1.381481
v 0 -0.008571 -1.316431
v 0 -0.008571 -1.251381
v 0 -0.008571 -1.186331
v 0 -0.008571 -1.121281
v 0 -0.008571 -1.056231
v 0 -0.008571 -0.991181
v 0 -0.008571 -0.926131
v 0 -0.008571 -0.861081
v 0 -0.008571 -0.796031
v 0 -0.008571 -0.730981
v 0 -0.008571 -0.665931
v 0 -0.008571 -0.600882
v 0 -0.008571 -0.535832
v 0 -0.008571 -0.470782
v 0 -0.008571 -0.405732
v 0 -0.008571 -0.340682
v 0 -0.008571 -0.275632
v 0 -0.008571 -0.210582
v 0 -0.008571 -0.145532
v 0 -0.008571 -0.080482
v 0 -0.008571 -0.015432
v 0 -0.008571 0.049618
v 0 -0.008571 0.114668
v 0 -0.008571 0.179718
v 0 -0.008571 0.244768
v 0 -0.008571 0.309818
v 0 -0.008571 0.374868
v 0 -0.008571 0.439917
v 0 -0.008571 0.504967
v 0 -0.008571 0.570017
v 0 -0.008571 0.635067
v 0 -0.008571 0.700117
v 0 -0.008571 0.765167
v 0 -0.008571 0.830217
v 0 0.055592 -2.35723
v 0 0.055592 -2.29218
v 0 0.055592 -2.22713
v 0 0.055592 -2.16208
v 0 0.055592 -2.09703
v 0 0.055592 -2.03198
v 0 0.055592 -1.96693
v 0 0.055592 -1.90188
v 0 0.055592 -1.83683
v 0 0.055592 -1.77178
v 0 0.055592 -1.70673
v 0 0.055592 -1.64168
v 0 0.055592 -1.576631
v 0 0.055592 -1.511581
v 0 0.055592 -1.446531
v 0 0.055592 -1.381481
v 0 0.055592 -1.316431
v 0 0.055592 -1.251381
v 0 0.055592 -1.186331
v 0 0.055592 -1.121281
v 0 0.055592 -1.056231
v 0 0.055592 -0.991181
v 0 0.055592 -0.926131
v 0 0.055592 -0.861081
v 0 0.055592 -0.796031
v 0 0.055592 -0.730981
v 0 0.055592 -0.665931
v 0 0.055592 -0.600882
v 0 0.055592 -0.535832
v 0 0.055592 -0.470782
v 0 0.055592 -0.405732
v 0 0.055592 -0.340682
v 0 0.055592 -0.275632
v 0 0.055592 -0.210582
v 0 0.055592 -0.145532
v 0 0.055592 -0.080482
v 0 0.055592 -0.015432
v 0 0.055592 0.049618
v 0 0.055592 0.114668
v 0 0.055592 0.179718
v 0 0.055592 0.244768
v 0 0.055592 0.309818
v 0 0.055592 0.374868
v 0 0.055592 0.439917
v 0 0.055592 0.504967
v 0 0.055592 0.570017
v 0 0.055592 0.635067
v 0 0.055592 0.700117
v 0 0.055592 0.765167
v 0 0.055592 0.830217
v 0 0.082285 -2.35723
v 0 0.082285 -2.29218
v 0 0.082285 -2.22713
v 0 0.082285 -2.16208
v 0 0.082285 -2.09703
v 0 0.082285 -2.03198
v 0 0.082285 -1.96693
v 0 0.082285 -1.90188
v 0 0.082285 -1.83683
v 0 0.082285 -1.77178
v 0 0.082285 -1.70673
v 0 0.082285 -1.64168
v 0 0.082285 -1.576631
v 0 0.082285 -1.511581
v 0 0.082285 -1.446531
v 0 0.082285 -1.381481
v 0 0.082285 -1.316431
v 0 0.082285 -1.251381
v 0 0.082285 -1.186331
v 0 0.082285 -1.121281
v 0 0.082285 -1.056231
v 0 0.082285 -0.991181
v 0 0.082285 -0.926131
v 0 0.082285 -0.861081
v 0 0.082285 -0.796031
v 0 0.082285 -0.730981
v 0 0.082285 -0.665931
v 0 0.082285 -0.600882
v 0 0.082285 -0.535832
v 0 0.082285 -0.470782
v 0 0.082285 -0.405732
v 0 0.082285 -0.340682
v 0 0.082285 -0.275632
v 0 0.082285 -0.210582
v 0 0.082285 -0.145532
v 0 0.082285 -0.080482
v 0 0.082285 -0.015432
v 0 0.082285 0.049618
v 0 0.082285 0.114668
v 0 0.082285 0.179718
v 0 0.082285 0.244768
v 0 0.082285 0.309818
v 0 0.082285 0.374868
v 0 0.082285 0.439917
v 0 0.082285 0.504967
v 0 0.082285 0.570017
v 0 0.082285 0.635067
v 0 0.082285 0.700117
v 0 0.082285 0.765167
v 0 0.082285 0.830217
v 0 0.123407 0.895267
v 0 0.123407 -2.422279
v -1.595546 0.123407 -2.422279
v -0.043123 0.123407 -2.42228
v -0.086246 0.123407 -2.42228
v -0.129369 0.123407 -2.42228
v -0.172491 0.123407 -2.42228
v -0.215614 0.123407 -2.42228
v -0.258737 0.123407 -2.42228
v -0.30186 0.123407 -2.42228
v -0.344983 0.123407 -2.42228
v -0.388106 0.123407 -2.42228
v -0.431229 0.123407 -2.42228
v -0.474351 0.123407 -2.42228
v -0.517474 0.123407 -2.42228
v -0.560597 0.123407 -2.42228
v -0.60372 0.123407 -2.42228
v -0.646843 0.123407 -2.42228
v -0.689966 0.123407 -2.42228
v -0.733088 0.123407 -2.42228
v -0.776211 0.123407 -2.42228
v -0.819334 0.123407 -2.42228
v -0.862457 0.123407 -2.42228
v -0.90558 0.123407 -2.42228
v -0.948703 0.123407 -2.42228
v -0.991826 0.123407 -2.42228
v -1.034948 0.123407 -2.42228
v -1.078071 0.123407 -2.42228
v -1.121194 0.123407 -2.42228
v -1.164317 0.123407 -2.42228
v -1.20744 0.123407 -2.42228
v -1.250563 0.123407 -2.42228
v -1.293686 0.123407 -2.42228
v -1.336808 0.123407 -2.42228
v -1.379931 0.123407 -2.422279
v -1.423054 0.123407 -2.422279
v -1.466177 0.123407 -2.422279
v -1.5093 0.123407 -2.422279
v -1.552423 0.123407 -2.422279
v 0 0.123407 0.830217
v 0 0.123407 0.765167
v 0 0.123407 0.700117
v 0 0.123407 0.635067
v 0 0.123407 0.570017
v 0 0.123407 0.504967
v 0 0.123407 0.439918
v 0 0.123407 0.374868
v 0 0.123407 0.309818
v 0 0.123407 0.244768
v 0 0.123407 0.179718
v 0 0.123407 0.114668
v 0 0.123407 0.049618
v 0 0.123407 -0.015432
v 0 0.123407 -0.080482
v 0 0.123407 -0.145532
v 0 0.123407 -0.210582
v 0 0.123407 -0.275632
v 0 0.123407 -0.340682
v 0 0.123407 -0.405732
v 0 0.123407 -0.470782
v 0 0.123407 -0.535832
v 0 0.123407 -0.600881
v 0 0.123407 -0.665931
v 0 0.123407 -0.730981
v 0 0.123407 -0.796031
v 0 0.123407 -0.861081
v 0 0.123407 -0.926131
v 0 0.123407 -0.991181
v 0 0.123407 -1.056231
v 0 0.123407 -1.121281
v 0 0.123407 -1.186331
v 0 0.123407 -1.251381
v 0 0.123407 -1.316431
v 0 0.123407 -1.381481
v 0 0.123407 -1.446531
v 0 0.123407 -1.51158
v 0 0.123407 -1.576631
v 0 0.123407 -1.64168
v 0 0.123407 -1.70673
v 0 0.123407 -1.77178
v 0 0.123407 -1.83683
v 0 0.123407 -1.90188
v 0 0.123407 -1.96693
v 0 0.123407 -2.03198
v 0 0.123407 -2.09703
v 0 0.123407 -2.16208
v 0 0.123407 -2.22713
v 0 0.123407 -2.29218
v 0 0.123407 -2.35723
v 0 0.123407 -2.422279
v 0 0.16453 -2.397235
v 0.009965 0.16453 0.870223
v -0.016602 0.16453 -2.436317
v 0.009965 -0.008571 0.895267
v 0.007047 -0.008571 -2.432205
v -1.578943 0.16453 -2.436317
v -1.595546 -0.008571 -2.436317
v -1.552423 -0.008571 -2.436317
v -1.5093 -0.008571 -2.436317
v -1.466177 -0.008571 -2.436317
v -1.423054 -0.008571 -2.436317
v -1.379931 -0.008571 -2.436317
v -1.336808 -0.008571 -2.436317
v -1.293685 -0.008571 -2.436317
v -1.250563 -0.008571 -2.436317
v -1.20744 -0.008571 -2.436317
v -1.164317 -0.008571 -2.436317
v -1.121194 -0.008571 -2.436317
v -1.078071 -0.008571 -2.436317
v -1.034948 -0.008571 -2.436317
v -0.991826 -0.008571 -2.436317
v -0.948703 -0.008571 -2.436317
v -0.90558 -0.008571 -2.436317
v -0.862457 -0.008571 -2.436317
v -0.819334 -0.008571 -2.436317
v -0.776211 -0.008571 -2.436317
v -0.733088 -0.008571 -2.436317
v -0.689966 -0.008571 -2.436317
v -0.646843 -0.008571 -2.436317
v -0.60372 -0.008571 -2.436317
v -0.560597 -0.008571 -2.436317
v -0.517474 -0.008571 -2.436317
v -0.474351 -0.008571 -2.436317
v -0.431229 -0.008571 -2.436317
v -0.388106 -0.008571 -2.436317
v -0.344983 -0.008571 -2.436317
v -0.30186 -0.008571 -2.436317
v -0.258737 -0.008571 -2.436317
v -0.215614 -0.008571 -2.436317
v -0.172491 -0.008571 -2.436317
v -0.129369 -0.008571 -2.436317
v -0.086246 -0.008571 -2.436317
v -0.043123 -0.008571 -2.436317
v -0.026521 0.16453 -2.436317
v -0.102848 0.16453 -2.436317
v -0.112766 0.16453 -2.436317
v -0.189094 0.16453 -2.436317
v -0.199012 0.16453 -2.436317
v -0.275339 0.16453 -2.436317
v -0.285258 0.16453 -2.436317
v -0.361585 0.16453 -2.436317
v -0.371503 0.16453 -2.436317
v -0.447831 0.16453 -2.436317
v -0.457749 0.16453 -2.436317
v -0.534077 0.16453 -2.436317
v -0.543995 0.16453 -2.436317
v -0.620322 0.16453 -2.436317
v -0.63024 0.16453 -2.436317
v -0.706568 0.16453 -2.436317
v -0.716486 0.16453 -2.436317
v -0.792814 0.16453 -2.436317
v -0.802732 0.16453 -2.436317
v -0.879059 0.16453 -2.436317
v -0.888978 0.16453 -2.436317
v -0.965305 0.16453 -2.436317
v -0.975223 0.16453 -2.436317
v -1.051551 0.16453 -2.436317
v -1.061469 0.16453 -2.436317
v -1.137797 0.16453 -2.436317
v -1.147715 0.16453 -2.436317
v -1.224042 0.16453 -2.436317
v -1.233961 0.16453 -2.436317
v -1.310288 0.16453 -2.436317
v -1.320206 0.16453 -2.436317
v -1.396534 0.16453 -2.436317
v -1.406452 0.16453 -2.436317
v -1.482779 0.16453 -2.436317
v -1.492698 0.16453 -2.436317
v -1.569025 0.16453 -2.436317
v 0.009965 0.055592 0.895267
v 0.007047 0.055592 -2.432205
v -1.595546 0.055592 -2.436317
v -0.043123 0.055592 -2.436317
v -0.086246 0.055592 -2.436317
v -0.129369 0.055592 -2.436317
v -0.172491 0.055592 -2.436317
v -0.215614 0.055592 -2.436317
v -0.258737 0.055592 -2.436317
v -0.30186 0.055592 -2.436317
v -0.344983 0.055592 -2.436317
v -0.388106 0.055592 -2.436317
v -0.431229 0.055592 -2.436317
v -0.474351 0.055592 -2.436317
v -0.517474 0.055592 -2.436317
v -0.560597 0.055592 -2.436317
v -0.60372 0.055592 -2.436317
v -0.646843 0.055592 -2.436317
v -0.689966 0.055592 -2.436317
v -0.733088 0.055592 -2.436317
v -0.776211 0.055592 -2.436317
v -0.819334 0.055592 -2.436317
v -0.862457 0.055592 -2.436317
v -0.90558 0.055592 -2.436317
v -0.948703 0.055592 -2.436317
v -0.991826 0.055592 -2.436317
v -1.034948 0.055592 -2.436317
v -1.078071 0.055592 -2.436317
v -1.121194 0.055592 -2.436317
v -1.164317 0.055592 -2.436317
v -1.20744 0.055592 -2.436317
v -1.250563 0.055592 -2.436317
v -1.293686 0.055592 -2.436317
v -1.336808 0.055592 -2.436317
v -1.379931 0.055592 -2.436317
v -1.423054 0.055592 -2.436317
v -1.466177 0.055592 -2.436317
v -1.5093 0.055592 -2.436317
v -1.552423 0.055592 -2.436317
v 0.009965 0.082285 0.895267
v 0.007047 0.082285 -2.432205
v -1.595546 0.082285 -2.436317
v -0.043123 0.082285 -2.436317
v -0.086246 0.082285 -2.436317
v -0.129369 0.082285 -2.436317
v -0.172491 0.082285 -2.436317
v -0.215614 0.082285 -2.436317
v -0.258737 0.082285 -2.436317
v -0.30186 0.082285 -2.436317
v -0.344983 0.082285 -2.436317
v -0.388106 0.082285 -2.436317
v -0.431229 0.082285 -2.436317
v -0.474351 0.082285 -2.436317
v -0.517474 0.082285 -2.436317
v -0.560597 0.082285 -2.436317
v -0.60372 0.082285 -2.436317
v -0.646843 0.082285 -2.436317
v -0.689966 0.082285 -2.436317
v -0.733088 0.082285 -2.436317
v -0.776211 0.082285 -2.436317
v -0.819334 0.082285 -2.436317
v -0.862457 0.082285 -2.436317
v -0.90558 0.082285 -2.436317
v -0.948703 0.082285 -2.436317
v -0.991826 0.082285 -2.436317
v -1.034948 0.082285 -2.436317
v -1.078071 0.082285 -2.436317
v -1.121194 0.082285 -2.436317
v -1.164317 0.082285 -2.436317
v -1.20744 0.082285 -2.436317
v -1.250563 0.082285 -2.436317
v -1.293686 0.082285 -2.436317
v -1.336808 0.082285 -2.436317
v -1.379931 0.082285 -2.436317
v -1.423054 0.082285 -2.436317
v -1.466177 0.082285 -2.436317
v -1.5093 0.082285 -2.436317
v -1.552423 0.082285 -2.436317
v 0.009965 0.16453 0.855261
v 0.009965 0.16453 0.740123
v 0.009965 0.16453 0.725161
v 0.009965 0.16453 0.610023
v 0.009965 0.16453 0.595062
v 0.009965 0.16453 0.479923
v 0.009965 0.16453 0.464962
v 0.009965 0.16453 0.349823
v 0.009965 0.16453 0.334862
v 0.009965 0.16453 0.219724
v 0.009965 0.16453 0.204762
v 0.009965 0.16453 0.089624
v 0.009965 0.16453 0.074662
v 0.009965 0.16453 -0.040476
v 0.009965 0.16453 -0.055438
v 0.009965 0.16453 -0.170576
v 0.009965 0.16453 -0.185538
v 0.009965 0.16453 -0.300676
v 0.009965 0.16453 -0.315637
v 0.009965 0.16453 -0.430776
v 0.009965 0.16453 -0.445737
v 0.009965 0.16453 -0.560876
v 0.009965 0.16453 -0.575837
v 0.009965 0.16453 -0.690976
v 0.009965 0.16453 -0.705937
v 0.009965 0.16453 -0.821075
v 0.009965 0.16453 -0.836037
v 0.009965 0.16453 -0.951175
v 0.009965 0.16453 -0.966137
v 0.009965 0.16453 -1.081275
v 0.009965 0.16453 -1.096237
v 0.009965 0.16453 -1.211375
v 0.009965 0.16453 -1.226336
v 0.009965 0.16453 -1.341475
v 0.009965 0.16453 -1.356436
v 0.009965 0.16453 -1.471575
v 0.009965 0.16453 -1.486536
v 0.009965 0.16453 -1.601675
v 0.009965 0.16453 -1.616636
v 0.009965 0.16453 -1.731791
v 0.009965 0.16453 -1.74672
v 0.009965 0.16453 -1.861874
v 0.009965 0.16453 -1.876836
v 0.009965 0.16453 -1.991974
v 0.009965 0.16453 -2.006936
v 0.009965 0.16453 -2.122074
v 0.009965 0.16453 -2.137036
v 0.009965 0.16453 -2.252178
v 0.009965 0.16453 -2.267131
v 0.009965 0.16453 -2.382274
v 0.009965 -0.008571 -2.35723
v 0.009965 -0.008571 -2.29218
v 0.009965 -0.008571 -2.22713
v 0.009965 -0.008571 -2.16208
v 0.009965 -0.008571 -2.09703
v 0.009965 -0.008571 -2.03198
v 0.009965 -0.008571 -1.96693
v 0.009965 -0.008571 -1.90188
v 0.009965 -0.008571 -1.83683
v 0.009965 -0.008571 -1.77178
v 0.009965 -0.008571 -1.70673
v 0.009965 -0.008571 -1.64168
v 0.009965 -0.008571 -1.576631
v 0.009965 -0.008571 -1.511581
v 0.009965 -0.008571 -1.446531
v 0.009965 -0.008571 -1.381481
v 0.009965 -0.008571 -1.316431
v 0.009965 -0.008571 -1.251381
v 0.009965 -0.008571 -1.186331
v 0.009965 -0.008571 -1.121281
v 0.009965 -0.008571 -1.056231
v 0.009965 -0.008571 -0.991181
v 0.009965 -0.008571 -0.926131
v 0.009965 -0.008571 -0.861081
v 0.009965 -0.008571 -0.796031
v 0.009965 -0.008571 -0.730981
v 0.009965 -0.008571 -0.665931
v 0.009965 -0.008571 -0.600882
v 0.009965 -0.008571 -0.535832
v 0.009965 -0.008571 -0.470782
v 0.009965 -0.008571 -0.405732
v 0.009965 -0.008571 -0.340682
v 0.009965 -0.008571 -0.275632
v 0.009965 -0.008571 -0.210582
v 0.009965 -0.008571 -0.145532
v 0.009965 -0.008571 -0.080482
v 0.009965 -0.008571 -0.015432
v 0.009965 -0.008571 0.049618
v 0.009965 -0.008571 0.114668
v 0.009965 -0.008571 0.179718
v 0.009965 -0.008571 0.244768
v 0.009965 -0.008571 0.309818
v 0.009965 -0.008571 0.374868
v 0.009965 -0.008571 0.439917
v 0.009965 -0.008571 0.504967
v 0.009965 -0.008571 0.570017
v 0.009965 -0.008571 0.635067
v 0.009965 -0.008571 0.700117
v 0.009965 -0.008571 0.765167
v 0.009965 -0.008571 0.830217
v 0.009965 0.055592 -2.35723
v 0.009965 0.055592 -2.29218
v 0.009965 0.055592 -2.22713
v 0.009965 0.055592 -2.16208
v 0.009965 0.055592 -2.09703
v 0.009965 0.055592 -2.03198
v 0.009965 0.055592 -1.96693
v 0.009965 0.055592 -1.90188
v 0.009965 0.055592 -1.83683
v 0.009965 0.055592 -1.77178
v 0.009965 0.055592 -1.70673
v 0.009965 0.055592 -1.64168
v 0.009965 0.055592 -1.576631
v 0.009965 0.055592 -1.511581
v 0.009965 0.055592 -1.446531
v 0.009965 0.055592 -1.381481
v 0.009965 0.055592 -1.316431
v 0.009965 0.055592 -1.251381
v 0.009965 0.055592 -1.186331
v 0.009965 0.055592 -1.121281
v 0.009965 0.055592 -1.056231
v 0.009965 0.055592 -0.991181
v 0.009965 0.055592 -0.926131
v 0.009965 0.055592 -0.861081
v 0.009965 0.055592 -0.796031
v 0.009965 0.055592 -0.730981
v 0.009965 0.055592 -0.665931
v 0.009965 0.055592 -0.600882
v 0.009965 0.055592 -0.535832
v 0.009965 0.055592 -0.470782
v 0.009965 0.055592 -0.405732
v 0.009965 0.055592 -0.340682
v 0.009965 0.055592 -0.275632
v 0.009965 0.055592 -0.210582
v 0.009965 0.055592 -0.145532
v 0.009965 0.055592 -0.080482
v 0.009965 0.055592 -0.015432
v 0.009965 0.055592 0.049618
v 0.009965 0.055592 0.114668
v 0.009965 0.055592 0.179718
v 0.009965 0.055592 0.244768
v 0.009965 0.055592 0.309818
v 0.009965 0.055592 0.374868
v 0.009965 0.055592 0.439917
v 0.009965 0.055592 0.504967
v 0.009965 0.055592 0.570017
v 0.009965 0.055592 0.635067
v 0.009965 0.055592 0.700117
v 0.009965 0.055592 0.765167
v 0.009965 0.055592 0.830217
v 0.009965 0.082285 -2.35723
v 0.009965 0.082285 -2.29218
v 0.009965 0.082285 -2.22713
v 0.009965 0.082285 -2.16208
v 0.009965 0.082285 -2.09703
v 0.009965 0.082285 -2.03198
v 0.009965 0.082285 -1.96693
v 0.009965 0.082285 -1.90188
v 0.009965 0.082285 -1.83683
v 0.009965 0.082285 -1.77178
v 0.009965 0.082285 -1.70673
v 0.009965 0.082285 -1.64168
v 0.009965 0.082285 -1.576631
v 0.009965 0.082285 -1.511581
v 0.009965 0.082285 -1.446531
v 0.009965 0.082285 -1.381481
v 0.009965 0.082285 -1.316431
v 0.009965 0.082285 -1.251381
v 0.009965 0.082285 -1.186331
v 0.009965 0.082285 -1.121281
v 0.009965 0.082285 -1.056231
v 0.009965 0.082285 -0.991181
v 0.009965 0.082285 -0.926131
v 0.009965 0.082285 -0.861081
v 0.009965 0.082285 -0.796031
v 0.009965 0.082285 -0.730981
v 0.009965 0.082285 -0.665931
v 0.009965 0.082285 -0.600882
v 0.009965 0.082285 -0.535832
v 0.009965 0.082285 -0.470782
v 0.009965 0.082285 -0.405732
v 0.009965 0.082285 -0.340682
v 0.009965 0.082285 -0.275632
v 0.009965 0.082285 -0.210582
v 0.009965 0.082285 -0.145532
v 0.009965 0.082285 -0.080482
v 0.009965 0.082285 -0.015432
v 0.009965 0.082285 0.049618
v 0.009965 0.082285 0.114668
v 0.009965 0.082285 0.179718
v 0.009965 0.082285 0.244768
v 0.009965 0.082285 0.309818
v 0.009965 0.082285 0.374868
v 0.009965 0.082285 0.439917
v 0.009965 0.082285 0.504967
v 0.009965 0.082285 0.570017
v 0.009965 0.082285 0.635067
v 0.009965 0.082285 0.700117
v 0.009965 0.082285 0.765167
v 0.009965 0.082285 0.830217
v 0.009965 0.123407 0.895267
v 0 0.123407 -2.436317
v -1.595546 0.123407 -2.436317
v -0.043123 0.123407 -2.436317
v -0.086246 0.123407 -2.436317
v -0.129369 0.123407 -2.436317
v -0.172491 0.123407 -2.436317
v -0.215614 0.123407 -2.436317
v -0.258737 0.123407 -2.436317
v -0.30186 0.123407 -2.436317
v -0.344983 0.123407 -2.436317
v -0.388106 0.123407 -2.436317
v -0.431229 0.123407 -2.436317
v -0.474351 0.123407 -2.436317
v -0.517474 0.123407 -2.436317
v -0.560597 0.123407 -2.436317
v -0.60372 0.123407 -2.436317
v -0.646843 0.123407 -2.436317
v -0.689966 0.123407 -2.436317
v -0.733088 0.123407 -2.436317
v -0.776211 0.123407 -2.436317
v -0.819334 0.123407 -2.436317
v -0.862457 0.123407 -2.436317
v -0.90558 0.123407 -2.436317
v -0.948703 0.123407 -2.436317
v -0.991826 0.123407 -2.436317
v -1.034948 0.123407 -2.436317
v -1.078071 0.123407 -2.436317
v -1.121194 0.123407 -2.436317
v -1.164317 0.123407 -2.436317
v -1.20744 0.123407 -2.436317
v -1.250563 0.123407 -2.436317
v -1.293686 0.123407 -2.436317
v -1.336808 0.123407 -2.436317
v -1.379931 0.123407 -2.436317
v -1.423054 0.123407 -2.436317
v -1.466177 0.123407 -2.436317
v -1.5093 0.123407 -2.436317
v -1.552423 0.123407 -2.436317
v 0.009965 0.123407 0.830217
v 0.009965 0.123407 0.765167
v 0.009965 0.123407 0.700117
v 0.009965 0.123407 0.635067
v 0.009965 0.123407 0.570017
v 0.009965 0.123407 0.504967
v 0.009965 0.123407 0.439918
v 0.009965 0.123407 0.374868
v 0.009965 0.123407 0.309818
v 0.009965 0.123407 0.244768
v 0.009965 0.123407 0.179718
v 0.009965 0.123407 0.114668
v 0.009965 0.123407 0.049618
v 0.009965 0.123407 -0.015432
v 0.009965 0.123407 -0.080482
v 0.009965 0.123407 -0.145532
v 0.009965 0.123407 -0.210582
v 0.009965 0.123407 -0.275632
v 0.009965 0.123407 -0.340682
v 0.009965 0.123407 -0.405732
v 0.009965 0.123407 -0.470782
v 0.009965 0.123407 -0.535832
v 0.009965 0.123407 -0.600881
v 0.009965 0.123407 -0.665931
v 0.009965 0.123407 -0.730981
v 0.009965 0.123407 -0.796031
v 0.009965 0.123407 -0.861081
v 0.009965 0.123407 -0.926131
v 0.009965 0.123407 -0.991181
v 0.009965 0.123407 -1.056231
v 0.009965 0.123407 -1.121281
v 0.009965 0.123407 -1.186331
v 0.009965 0.123407 -1.251381
v 0.009965 0.123407 -1.316431
v 0.009965 0.123407 -1.381481
v 0.009965 0.123407 -1.446531
v 0.009965 0.123407 -1.51158
v 0.009965 0.123407 -1.576631
v 0.009965 0.123407 -1.64168
v 0.009965 0.123407 -1.70673
v 0.009965 0.123407 -1.77178
v 0.009965 0.123407 -1.83683
v 0.009965 0.123407 -1.90188
v 0.009965 0.123407 -1.96693
v 0.009965 0.123407 -2.03198
v 0.009965 0.123407 -2.09703
v 0.009965 0.123407 -2.16208
v 0.009965 0.123407 -2.22713
v 0.009965 0.123407 -2.29218
v 0.009965 0.123407 -2.35723
v 0.009965 0.123407 -2.422279
v 0.009965 0.16453 -2.397235
vn -1 0 0
vn 0 0 1
vn 0.9992 0 -0.0389
vn 0 0 -1
vn 0.0817 0 -0.9967
vn 0.9992 -0.0329 -0.0208
vn 1 0 0
vn 0.044 -0.0461 -0.998
vn 0 0.5201 0.8541
vn 0 1 0
vn 0 -1 0
vn -0.5002 0.1212 -0.8574
vn 0.9273 0.3744 0
vn -0.9273 0.3744 0
vn 0 0.5201 -0.8541
vn 0 0.5204 0.8539
vn 0 0.5204 -0.8539
vn 0 0.5202 0.854
vn 0 0.5202 -0.854
vn 0.955 0.0959 0.2808
vt 0.980392 0.629332
vt 1.000000 0.629332
vt 1.000000 1.000000
vt 0.980392 1.000000
vt 1.000000 0.237566
vt 1.000000 0.000000
vt 1.000000 0.000000
vt 1.000000 0.237566
vt 1.000000 0.237566
vt 1.000000 0.237566
vt 1.000000 0.237566
vt 1.000000 0.237566
vt 1.000000 0.237566
vt 1.000000 0.237566
vt 1.000000 0.237566
vt 1.000000 0.237566
vt 1.000000 0.000000
vt 1.000000 0.237566
vt 1.000000 0.237566
vt 1.000000 0.237566
vt 1.000000 1.000000
vt 1.000000 0.629332
vt 1.000000 0.629332
vt 1.000000 1.000000
vt 1.000000 0.629332
vt 0.980392 0.475131
vt 1.000000 0.475131
vt 0.980392 0.237566
vt 1.000000 0.475131
vt 1.000000 0.475131
vt 1.000000 0.475132
vt 1.000000 0.475132
vt 1.000000 0.475131
vt 1.000000 0.475132
vt 0.000000 0.237566
vt 0.019608 0.237566
vt 0.019608 0.475132
vt 0.000000 0.475132
vt 0.039216 0.237566
vt 0.058824 0.237566
vt 0.058824 0.475132
vt 0.039216 0.475132
vt 0.078431 0.237566
vt 0.098039 0.237566
vt 0.098039 0.475132
vt 0.078431 0.475132
vt 0.117647 0.237566
vt 0.137255 0.237566
vt 0.137255 0.475132
vt 0.117647 0.475132
vt 0.156863 0.237566
vt 0.176471 0.237566
vt 0.176471 0.475132
vt 0.156863 0.475132
vt 0.196078 0.237566
vt 0.215686 0.237566
vt 0.215686 0.475132
vt 0.196078 0.475132
vt 0.235294 0.237566
vt 0.254902 0.237566
vt 0.254902 0.475132
vt 0.235294 0.475132
vt 0.274510 0.237566
vt 0.294118 0.237566
vt 0.294118 0.475131
vt 0.274510 0.475132
vt 0.313726 0.237566
vt 0.333333 0.237566
vt 0.333333 0.475131
vt 0.313726 0.475131
vt 0.352941 0.237566
vt 0.372549 0.237566
vt 0.372549 0.475132
vt 0.352941 0.475131
vt 0.392157 0.237566
vt 0.411765 0.237566
vt 0.411765 0.475132
vt 0.392157 0.475132
vt 0.431373 0.237566
vt 0.450980 0.237566
vt 0.450980 0.475132
vt 0.431373 0.475132
vt 0.470588 0.237566
vt 0.490196 0.237566
vt 0.490196 0.475132
vt 0.470588 0.475132
vt 0.509804 0.237566
vt 0.529412 0.237566
vt 0.529412 0.475132
vt 0.509804 0.475132
vt 0.549020 0.237566
vt 0.568627 0.237566
vt 0.568627 0.475132
vt 0.549020 0.475132
vt 0.588235 0.237566
vt 0.607843 0.237566
vt 0.607843 0.475132
vt 0.588235 0.475132
vt 0.627451 0.237566
vt 0.647059 0.237566
vt 0.647059 0.475132
vt 0.627451 0.475132
vt 0.666667 0.237566
vt 0.686275 0.237566
vt 0.686275 0.475132
vt 0.666667 0.475132
vt 0.705882 0.237566
vt 0.725490 0.237566
vt 0.725490 0.475132
vt 0.705882 0.475132
vt 0.745098 0.237566
vt 0.764706 0.237566
vt 0.764706 0.475132
vt 0.745098 0.475132
vt 0.784314 0.237566
vt 0.803922 0.237566
vt 0.803922 0.475132
vt 0.784314 0.475132
vt 0.823529 0.237566
vt 0.843137 0.237566
vt 0.843137 0.475132
vt 0.823529 0.475132
vt 0.862745 0.237566
vt 0.882353 0.237566
vt 0.882353 0.475132
vt 0.862745 0.475132
vt 0.901961 0.237566
vt 0.921569 0.237566
vt 0.921569 0.475132
vt 0.901961 0.475132
vt 0.941177 0.237566
vt 0.960784 0.237566
vt 0.960784 0.475131
vt 0.941176 0.475132
vt 0.019608 0.629332
vt 0.000000 0.629332
vt 0.039216 0.629332
vt 0.058824 0.629332
vt 0.078431 0.629332
vt 0.098039 0.629332
vt 0.117647 0.629332
vt 0.137255 0.629332
vt 0.156863 0.629332
vt 0.176471 0.629332
vt 0.196078 0.629332
vt 0.215686 0.629332
vt 0.235294 0.629332
vt 0.254902 0.629332
vt 0.274510 0.629332
vt 0.294118 0.629332
vt 0.313726 0.629332
vt 0.333333 0.629332
vt 0.352941 0.629332
vt 0.372549 0.629332
vt 0.392157 0.629332
vt 0.411765 0.629332
vt 0.431373 0.629332
vt 0.450980 0.629332
vt 0.470588 0.629332
vt 0.490196 0.629332
vt 0.509804 0.629332
vt 0.529412 0.629332
vt 0.549020 0.629332
vt 0.568627 0.629332
vt 0.588235 0.629332
vt 0.607843 0.629332
vt 0.627451 0.629332
vt 0.647059 0.629332
vt 0.666667 0.629332
vt 0.686275 0.629332
vt 0.705882 0.629332
vt 0.725490 0.629332
vt 0.745098 0.629332
vt 0.764706 0.629332
vt 0.784314 0.629332
vt 0.803922 0.629332
vt 0.823529 0.629332
vt 0.843137 0.629332
vt 0.862745 0.629332
vt 0.882353 0.629332
vt 0.901961 0.629332
vt 0.921569 0.629332
vt 0.941176 0.629332
vt 0.960784 0.629332
vt 0.019608 1.000000
vt 0.000000 1.000000
vt 0.058824 1.000000
vt 0.039216 1.000000
vt 0.098039 1.000000
vt 0.078431 1.000000
vt 0.137255 1.000000
vt 0.117647 1.000000
vt 0.176471 1.000000
vt 0.156863 1.000000
vt 0.215686 1.000000
vt 0.196078 1.000000
vt 0.254902 1.000000
vt 0.235294 1.000000
vt 0.294118 1.000000
vt 0.274510 1.000000
vt 0.333333 1.000000
vt 0.313726 1.000000
vt 0.372549 1.000000
vt 0.352941 1.000000
vt 0.411765 1.000000
vt 0.392157 1.000000
vt 0.450980 1.000000
vt 0.431373 1.000000
vt 0.490196 1.000000
vt 0.470588 1.000000
vt 0.529412 1.000000
vt 0.509804 1.000000
vt 0.568627 1.000000
vt 0.549020 1.000000
vt 0.607843 1.000000
vt 0.588235 1.000000
vt 0.647059 1.000000
vt 0.627451 1.000000
vt 0.686275 1.000000
vt 0.666667 1.000000
vt 0.725490 1.000000
vt 0.705882 1.000000
vt 0.764706 1.000000
vt 0.745098 1.000000
vt 0.803922 1.000000
vt 0.784314 1.000000
vt 0.843137 1.000000
vt 0.823529 1.000000
vt 0.882353 1.000000
vt 0.862745 1.000000
vt 0.921569 1.000000
vt 0.901961 1.000000
vt 0.960784 1.000000
vt 0.941176 1.000000
vt 0.941177 0.000000
vt 0.960784 0.000000
vt 0.901961 0.000000
vt 0.921569 0.000000
vt 0.862745 0.000000
vt 0.882353 0.000000
vt 0.823529 0.000000
vt 0.843137 0.000000
vt 0.784314 0.000000
vt 0.803922 0.000000
vt 0.745098 0.000000
vt 0.764706 0.000000
vt 0.705882 0.000000
vt 0.725490 0.000000
vt 0.666667 0.000000
vt 0.686275 0.000000
vt 0.627451 0.000000
vt 0.647059 0.000000
vt 0.588235 0.000000
vt 0.607843 0.000000
vt 0.549020 0.000000
vt 0.568628 0.000000
vt 0.509804 0.000000
vt 0.529412 0.000000
vt 0.470588 0.000000
vt 0.490196 0.000000
vt 0.431373 0.000000
vt 0.450980 0.000000
vt 0.392157 0.000000
vt 0.411765 0.000000
vt 0.352941 0.000000
vt 0.372549 0.000000
vt 0.313726 0.000000
vt 0.333333 0.000000
vt 0.274510 0.000000
vt 0.294118 0.000000
vt 0.235294 0.000000
vt 0.254902 0.000000
vt 0.196078 0.000000
vt 0.215686 0.000000
vt 0.156863 0.000000
vt 0.176471 0.000000
vt 0.117647 0.000000
vt 0.137255 0.000000
vt 0.078431 0.000000
vt 0.098039 0.000000
vt 0.039216 0.000000
vt 0.058824 0.000000
vt 0.000000 0.000000
vt 0.019608 0.000000
vt 0.980392 0.000000
s 0
usemtl 材质.004
f 257/1/1 80/2/1 4/3/1 207/4/1
f 395/5/2 78/6/2 5/7/2 359/8/2
f 358/8/2 2/7/2 43/7/2 360/9/2
f 361/8/2 44/7/2 45/7/2 362/9/2
f 363/9/2 46/7/2 47/7/2 364/10/2
f 365/9/2 48/7/2 49/7/2 366/9/2
f 367/9/2 50/7/2 51/7/2 368/11/2
f 369/12/2 52/7/2 53/7/2 370/13/2
f 371/13/2 54/7/2 55/7/2 372/8/2
f 373/14/2 56/7/2 57/7/2 374/13/2
f 375/9/2 58/7/2 59/7/2 376/13/2
f 377/15/2 60/7/2 61/7/2 378/16/2
f 379/5/2 62/17/2 63/7/2 380/13/2
f 381/15/2 64/7/2 65/17/2 382/18/2
f 383/8/2 66/7/2 67/7/2 384/8/2
f 385/8/2 68/7/2 69/7/2 386/9/2
f 387/19/2 70/17/2 71/7/2 388/9/2
f 389/13/2 72/7/2 73/7/2 390/13/2
f 391/20/2 74/17/2 75/7/2 392/9/2
f 393/8/2 76/7/2 77/7/2 394/9/2
f 9/3/2 115/2/2 116/2/2 8/3/2
f 11/3/2 113/2/2 114/2/2 10/3/2
f 13/21/2 111/22/2 112/2/2 12/3/2
f 15/3/2 109/2/2 110/2/2 14/3/2
f 17/3/2 107/2/2 108/2/2 16/3/2
f 19/3/2 105/2/2 106/2/2 18/3/2
f 21/3/2 103/2/2 104/2/2 20/3/2
f 23/3/2 101/2/2 102/2/2 22/3/2
f 25/3/2 99/2/2 100/23/2 24/3/2
f 27/3/2 97/2/2 98/2/2 26/24/2
f 29/3/2 95/2/2 96/2/2 28/3/2
f 31/3/2 93/2/2 94/2/2 30/24/2
f 33/3/2 91/23/2 92/2/2 32/3/2
f 35/3/2 89/2/2 90/2/2 34/24/2
f 37/3/2 87/2/2 88/2/2 36/3/2
f 39/3/2 85/2/2 86/23/2 38/3/2
f 41/3/2 83/2/2 84/25/2 40/3/2
f 4/3/2 80/2/2 82/2/2 42/3/2
f 7/3/2 117/22/2 81/2/2 6/3/2
f 307/26/1 119/27/1 80/2/1 257/1/1
f 445/28/1 446/8/1 119/27/1 307/26/1
f 116/2/2 155/29/2 156/30/2 117/22/2
f 115/2/2 154/27/2 155/29/2 116/2/2
f 114/2/2 153/27/2 154/27/2 115/2/2
f 113/2/2 152/27/2 153/27/2 114/2/2
f 112/2/2 151/27/2 152/27/2 113/2/2
f 111/22/2 150/30/2 151/27/2 112/2/2
f 110/2/2 149/31/2 150/30/2 111/22/2
f 109/2/2 148/31/2 149/31/2 110/2/2
f 108/2/2 147/31/2 148/31/2 109/2/2
f 107/2/2 146/27/2 147/31/2 108/2/2
f 106/2/2 145/27/2 146/27/2 107/2/2
f 105/2/2 144/27/2 145/27/2 106/2/2
f 104/2/2 143/27/2 144/27/2 105/2/2
f 103/2/2 142/27/2 143/27/2 104/2/2
f 102/2/2 141/29/2 142/27/2 103/2/2
f 101/2/2 140/31/2 141/29/2 102/2/2
f 100/23/2 139/31/2 140/31/2 101/2/2
f 99/2/2 138/27/2 139/31/2 100/23/2
f 98/2/2 137/29/2 138/27/2 99/2/2
f 97/2/2 136/29/2 137/29/2 98/2/2
f 96/2/2 135/29/2 136/29/2 97/2/2
f 95/2/2 134/27/2 135/29/2 96/2/2
f 94/2/2 133/27/2 134/27/2 95/2/2
f 93/2/2 132/27/2 133/27/2 94/2/2
f 92/2/2 131/27/2 132/27/2 93/2/2
f 91/23/2 130/32/2 131/27/2 92/2/2
f 90/2/2 129/31/2 130/32/2 91/23/2
f 89/2/2 128/27/2 129/31/2 90/2/2
f 88/2/2 127/27/2 128/27/2 89/2/2
f 87/2/2 126/33/2 127/27/2 88/2/2
f 86/23/2 125/34/2 126/33/2 87/2/2
f 85/2/2 124/27/2 125/34/2 86/23/2
f 84/25/2 123/33/2 124/27/2 85/2/2
f 83/2/2 122/27/2 123/33/2 84/25/2
f 82/2/2 121/29/2 122/27/2 83/2/2
f 80/2/2 119/27/2 121/29/2 82/2/2
f 117/22/2 156/30/2 120/27/2 81/2/2
f 357/35/1 396/36/1 356/37/1 118/38/1
f 397/39/1 398/40/1 354/41/1 355/42/1
f 399/43/1 400/44/1 352/45/1 353/46/1
f 401/47/1 402/48/1 350/49/1 351/50/1
f 403/51/1 404/52/1 348/53/1 349/54/1
f 405/55/1 406/56/1 346/57/1 347/58/1
f 407/59/1 408/60/1 344/61/1 345/62/1
f 409/63/1 410/64/1 342/65/1 343/66/1
f 411/67/1 412/68/1 340/69/1 341/70/1
f 413/71/1 414/72/1 338/73/1 339/74/1
f 415/75/1 416/76/1 336/77/1 337/78/1
f 417/79/1 418/80/1 334/81/1 335/82/1
f 419/83/1 420/84/1 332/85/1 333/86/1
f 421/87/1 422/88/1 330/89/1 331/90/1
f 423/91/1 424/92/1 328/93/1 329/94/1
f 425/95/1 426/96/1 326/97/1 327/98/1
f 427/99/1 428/100/1 324/101/1 325/102/1
f 429/103/1 430/104/1 322/105/1 323/106/1
f 431/107/1 432/108/1 320/109/1 321/110/1
f 433/111/1 434/112/1 318/113/1 319/114/1
f 435/115/1 436/116/1 316/117/1 317/118/1
f 437/119/1 438/120/1 314/121/1 315/122/1
f 439/123/1 440/124/1 312/125/1 313/126/1
f 441/127/1 442/128/1 310/129/1 311/130/1
f 443/131/1 444/132/1 308/133/1 309/134/1
f 118/38/1 356/37/1 306/135/1 79/136/1
f 356/37/1 355/42/1 305/137/1 306/135/1
f 355/42/1 354/41/1 304/138/1 305/137/1
f 354/41/1 353/46/1 303/139/1 304/138/1
f 353/46/1 352/45/1 302/140/1 303/139/1
f 352/45/1 351/50/1 301/141/1 302/140/1
f 351/50/1 350/49/1 300/142/1 301/141/1
f 350/49/1 349/54/1 299/143/1 300/142/1
f 349/54/1 348/53/1 298/144/1 299/143/1
f 348/53/1 347/58/1 297/145/1 298/144/1
f 347/58/1 346/57/1 296/146/1 297/145/1
f 346/57/1 345/62/1 295/147/1 296/146/1
f 345/62/1 344/61/1 294/148/1 295/147/1
f 344/61/1 343/66/1 293/149/1 294/148/1
f 343/66/1 342/65/1 292/150/1 293/149/1
f 342/65/1 341/70/1 291/151/1 292/150/1
f 341/70/1 340/69/1 290/152/1 291/151/1
f 340/69/1 339/74/1 289/153/1 290/152/1
f 339/74/1 338/73/1 288/154/1 289/153/1
f 338/73/1 337/78/1 287/155/1 288/154/1
f 337/78/1 336/77/1 286/156/1 287/155/1
f 336/77/1 335/82/1 285/157/1 286/156/1
f 335/82/1 334/81/1 284/158/1 285/157/1
f 334/81/1 333/86/1 283/159/1 284/158/1
f 333/86/1 332/85/1 282/160/1 283/159/1
f 332/85/1 331/90/1 281/161/1 282/160/1
f 331/90/1 330/89/1 280/162/1 281/161/1
f 330/89/1 329/94/1 279/163/1 280/162/1
f 329/94/1 328/93/1 278/164/1 279/163/1
f 328/93/1 327/98/1 277/165/1 278/164/1
f 327/98/1 326/97/1 276/166/1 277/165/1
f 326/97/1 325/102/1 275/167/1 276/166/1
f 325/102/1 324/101/1 274/168/1 275/167/1
f 324/101/1 323/106/1 273/169/1 274/168/1
f 323/106/1 322/105/1 272/170/1 273/169/1
f 322/105/1 321/110/1 271/171/1 272/170/1
f 321/110/1 320/109/1 270/172/1 271/171/1
f 320/109/1 319/114/1 269/173/1 270/172/1
f 319/114/1 318/113/1 268/174/1 269/173/1
f 318/113/1 317/118/1 267/175/1 268/174/1
f 317/118/1 316/117/1 266/176/1 267/175/1
f 316/117/1 315/122/1 265/177/1 266/176/1
f 315/122/1 314/121/1 264/178/1 265/177/1
f 314/121/1 313/126/1 263/179/1 264/178/1
f 313/126/1 312/125/1 262/180/1 263/179/1
f 312/125/1 311/130/1 261/181/1 262/180/1
f 311/130/1 310/129/1 260/182/1 261/181/1
f 310/129/1 309/134/1 259/183/1 260/182/1
f 309/134/1 308/133/1 258/184/1 259/183/1
f 308/133/1 307/26/1 257/1/1 258/184/1
f 79/136/1 306/135/1 256/185/1 3/186/1
f 305/137/1 304/138/1 254/187/1 255/188/1
f 303/139/1 302/140/1 252/189/1 253/190/1
f 301/141/1 300/142/1 250/191/1 251/192/1
f 299/143/1 298/144/1 248/193/1 249/194/1
f 297/145/1 296/146/1 246/195/1 247/196/1
f 295/147/1 294/148/1 244/197/1 245/198/1
f 293/149/1 292/150/1 242/199/1 243/200/1
f 291/151/1 290/152/1 240/201/1 241/202/1
f 289/153/1 288/154/1 238/203/1 239/204/1
f 287/155/1 286/156/1 236/205/1 237/206/1
f 285/157/1 284/158/1 234/207/1 235/208/1
f 283/159/1 282/160/1 232/209/1 233/210/1
f 281/161/1 280/162/1 230/211/1 231/212/1
f 279/163/1 278/164/1 228/213/1 229/214/1
f 277/165/1 276/166/1 226/215/1 227/216/1
f 275/167/1 274/168/1 224/217/1 225/218/1
f 273/169/1 272/170/1 222/219/1 223/220/1
f 271/171/1 270/172/1 220/221/1 221/222/1
f 269/173/1 268/174/1 218/223/1 219/224/1
f 267/175/1 266/176/1 216/225/1 217/226/1
f 265/177/1 264/178/1 214/227/1 215/228/1
f 263/179/1 262/180/1 212/229/1 213/230/1
f 261/181/1 260/182/1 210/231/1 211/232/1
f 259/183/1 258/184/1 208/233/1 209/234/1
f 204/235/1 205/236/1 444/132/1 443/131/1
f 202/237/1 203/238/1 442/128/1 441/127/1
f 200/239/1 201/240/1 440/124/1 439/123/1
f 198/241/1 199/242/1 438/120/1 437/119/1
f 196/243/1 197/244/1 436/116/1 435/115/1
f 194/245/1 195/246/1 434/112/1 433/111/1
f 192/247/1 193/248/1 432/108/1 431/107/1
f 190/249/1 191/250/1 430/104/1 429/103/1
f 188/251/1 189/252/1 428/100/1 427/99/1
f 186/253/1 187/254/1 426/96/1 425/95/1
f 184/255/1 185/256/1 424/92/1 423/91/1
f 182/257/1 183/258/1 422/88/1 421/87/1
f 180/259/1 181/260/1 420/84/1 419/83/1
f 178/261/1 179/262/1 418/80/1 417/79/1
f 176/263/1 177/264/1 416/76/1 415/75/1
f 174/265/1 175/266/1 414/72/1 413/71/1
f 172/267/1 173/268/1 412/68/1 411/67/1
f 170/269/1 171/270/1 410/64/1 409/63/1
f 168/271/1 169/272/1 408/60/1 407/59/1
f 166/273/1 167/274/1 406/56/1 405/55/1
f 164/275/1 165/276/1 404/52/1 403/51/1
f 162/277/1 163/278/1 402/48/1 401/47/1
f 160/279/1 161/280/1 400/44/1 399/43/1
f 158/281/1 159/282/1 398/40/1 397/39/1
f 1/283/1 157/284/1 396/36/1 357/35/1
f 206/285/1 447/7/1 446/8/1 445/28/1
f 154/27/2 393/8/2 394/9/2 155/29/2
f 152/27/2 391/20/2 392/9/2 153/27/2
f 150/30/2 389/13/2 390/13/2 151/27/2
f 148/31/2 387/19/2 388/9/2 149/31/2
f 146/27/2 385/8/2 386/9/2 147/31/2
f 144/27/2 383/8/2 384/8/2 145/27/2
f 142/27/2 381/15/2 382/18/2 143/27/2
f 140/31/2 379/5/2 380/13/2 141/29/2
f 138/27/2 377/15/2 378/16/2 139/31/2
f 136/29/2 375/9/2 376/13/2 137/29/2
f 134/27/2 373/14/2 374/13/2 135/29/2
f 132/27/2 371/13/2 372/8/2 133/27/2
f 130/32/2 369/12/2 370/13/2 131/27/2
f 128/27/2 367/9/2 368/11/2 129/31/2
f 126/33/2 365/9/2 366/9/2 127/27/2
f 124/27/2 363/9/2 364/10/2 125/34/2
f 122/27/2 361/8/2 362/9/2 123/33/2
f 119/27/2 358/8/2 360/9/2 121/29/2
f 156/30/2 395/5/2 359/8/2 120/27/2
f 704/1/3 654/4/3 451/3/3 527/2/3
f 842/5/4 806/8/4 452/7/4 525/6/4
f 805/8/4 807/9/4 490/7/4 449/7/4
f 808/8/4 809/9/4 492/7/4 491/7/4
f 810/9/4 811/10/4 494/7/4 493/7/4
f 812/9/4 813/9/4 496/7/4 495/7/4
f 814/9/4 815/11/4 498/7/4 497/7/4
f 816/12/4 817/13/4 500/7/4 499/7/4
f 818/13/4 819/8/4 502/7/4 501/7/4
f 820/14/4 821/13/4 504/7/4 503/7/4
f 822/9/4 823/13/4 506/7/4 505/7/4
f 824/15/4 825/16/4 508/7/4 507/7/4
f 826/5/4 827/13/4 510/7/4 509/17/4
f 828/15/4 829/18/4 512/17/4 511/7/4
f 830/8/4 831/8/4 514/7/4 513/7/4
f 832/8/4 833/9/4 516/7/4 515/7/4
f 834/19/4 835/9/4 518/7/4 517/17/4
f 836/13/4 837/13/4 520/7/4 519/7/4
f 838/20/4 839/9/4 522/7/4 521/17/4
f 840/8/4 841/9/4 524/7/4 523/7/4
f 456/3/4 455/3/4 563/2/4 562/2/4
f 458/3/4 457/3/4 561/2/4 560/2/4
f 460/21/4 459/3/4 559/2/4 558/22/4
f 462/3/4 461/3/4 557/2/4 556/2/4
f 464/3/4 463/3/4 555/2/4 554/2/4
f 466/3/4 465/3/4 553/2/4 552/2/4
f 468/3/4 467/3/4 551/2/4 550/2/4
f 470/3/4 469/3/4 549/2/4 548/2/4
f 472/3/4 471/3/4 547/23/4 546/2/4
f 474/3/4 473/24/4 545/2/4 544/2/4
f 476/3/4 475/3/4 543/2/4 542/2/4
f 478/3/4 477/24/4 541/2/4 540/2/4
f 480/3/4 479/3/4 539/2/4 538/23/4
f 482/3/4 481/24/4 537/2/4 536/2/4
f 484/3/4 483/3/4 535/2/4 534/2/4
f 486/3/4 485/3/4 533/23/4 532/2/4
f 488/3/4 487/3/4 531/25/4 530/2/4
f 451/3/5 489/3/5 529/2/5 527/2/5
f 454/3/4 453/3/4 528/2/4 564/22/4
f 754/26/3 704/1/3 527/2/3 566/27/3
f 892/28/6 754/26/6 566/27/6 893/8/6
f 563/2/4 564/22/4 603/30/4 602/29/4
f 562/2/4 563/2/4 602/29/4 601/27/4
f 561/2/4 562/2/4 601/27/4 600/27/4
f 560/2/4 561/2/4 600/27/4 599/27/4
f 559/2/4 560/2/4 599/27/4 598/27/4
f 558/22/4 559/2/4 598/27/4 597/30/4
f 557/2/4 558/22/4 597/30/4 596/31/4
f 556/2/4 557/2/4 596/31/4 595/31/4
f 555/2/4 556/2/4 595/31/4 594/31/4
f 554/2/4 555/2/4 594/31/4 593/27/4
f 553/2/4 554/2/4 593/27/4 592/27/4
f 552/2/4 553/2/4 592/27/4 591/27/4
f 551/2/4 552/2/4 591/27/4 590/27/4
f 550/2/4 551/2/4 590/27/4 589/27/4
f 549/2/4 550/2/4 589/27/4 588/29/4
f 548/2/4 549/2/4 588/29/4 587/31/4
f 547/23/4 548/2/4 587/31/4 586/31/4
f 546/2/4 547/23/4 586/31/4 585/27/4
f 545/2/4 546/2/4 585/27/4 584/29/4
f 544/2/4 545/2/4 584/29/4 583/29/4
f 543/2/4 544/2/4 583/29/4 582/29/4
f 542/2/4 543/2/4 582/29/4 581/27/4
f 541/2/4 542/2/4 581/27/4 580/27/4
f 540/2/4 541/2/4 580/27/4 579/27/4
f 539/2/4 540/2/4 579/27/4 578/27/4
f 538/23/4 539/2/4 578/27/4 577/32/4
f 537/2/4 538/23/4 577/32/4 576/31/4
f 536/2/4 537/2/4 576/31/4 575/27/4
f 535/2/4 536/2/4 575/27/4 574/27/4
f 534/2/4 535/2/4 574/27/4 573/33/4
f 533/23/4 534/2/4 573/33/4 572/34/4
f 532/2/4 533/23/4 572/34/4 571/27/4
f 531/25/4 532/2/4 571/27/4 570/33/4
f 530/2/4 531/25/4 570/33/4 569/27/4
f 529/2/4 530/2/4 569/27/4 568/29/4
f 527/2/5 529/2/5 568/29/5 566/27/5
f 564/22/4 528/2/4 567/27/4 603/30/4
f 804/35/7 565/38/7 803/37/7 843/36/7
f 844/39/7 802/42/7 801/41/7 845/40/7
f 846/43/7 800/46/7 799/45/7 847/44/7
f 848/47/7 798/50/7 797/49/7 849/48/7
f 850/51/7 796/54/7 795/53/7 851/52/7
f 852/55/7 794/58/7 793/57/7 853/56/7
f 854/59/7 792/62/7 791/61/7 855/60/7
f 856/63/7 790/66/7 789/65/7 857/64/7
f 858/67/7 788/70/7 787/69/7 859/68/7
f 860/71/7 786/74/7 785/73/7 861/72/7
f 862/75/7 784/78/7 783/77/7 863/76/7
f 864/79/7 782/82/7 781/81/7 865/80/7
f 866/83/7 780/86/7 779/85/7 867/84/7
f 868/87/7 778/90/7 777/89/7 869/88/7
f 870/91/7 776/94/7 775/93/7 871/92/7
f 872/95/7 774/98/7 773/97/7 873/96/7
f 874/99/7 772/102/7 771/101/7 875/100/7
f 876/103/7 770/106/7 769/105/7 877/104/7
f 878/107/7 768/110/7 767/109/7 879/108/7
f 880/111/7 766/114/7 765/113/7 881/112/7
f 882/115/7 764/118/7 763/117/7 883/116/7
f 884/119/7 762/122/7 761/121/7 885/120/7
f 886/123/7 760/126/7 759/125/7 887/124/7
f 888/127/7 758/130/7 757/129/7 889/128/7
f 890/131/7 756/134/7 755/133/7 891/132/7
f 565/38/7 526/136/7 753/135/7 803/37/7
f 803/37/7 753/135/7 752/137/7 802/42/7
f 802/42/7 752/137/7 751/138/7 801/41/7
f 801/41/7 751/138/7 750/139/7 800/46/7
f 800/46/7 750/139/7 749/140/7 799/45/7
f 799/45/7 749/140/7 748/141/7 798/50/7
f 798/50/7 748/141/7 747/142/7 797/49/7
f 797/49/7 747/142/7 746/143/7 796/54/7
f 796/54/7 746/143/7 745/144/7 795/53/7
f 795/53/7 745/144/7 744/145/7 794/58/7
f 794/58/7 744/145/7 743/146/7 793/57/7
f 793/57/7 743/146/7 742/147/7 792/62/7
f 792/62/7 742/147/7 741/148/7 791/61/7
f 791/61/7 741/148/7 740/149/7 790/66/7
f 790/66/7 740/149/7 739/150/7 789/65/7
f 789/65/7 739/150/7 738/151/7 788/70/7
f 788/70/7 738/151/7 737/152/7 787/69/7
f 787/69/7 737/152/7 736/153/7 786/74/7
f 786/74/7 736/153/7 735/154/7 785/73/7
f 785/73/7 735/154/7 734/155/7 784/78/7
f 784/78/7 734/155/7 733/156/7 783/77/7
f 783/77/7 733/156/7 732/157/7 782/82/7
f 782/82/7 732/157/7 731/158/7 781/81/7
f 781/81/7 731/158/7 730/159/7 780/86/7
f 780/86/7 730/159/7 729/160/7 779/85/7
f 779/85/7 729/160/7 728/161/7 778/90/7
f 778/90/7 728/161/7 727/162/7 777/89/7
f 777/89/7 727/162/7 726/163/7 776/94/7
f 776/94/7 726/163/7 725/164/7 775/93/7
f 775/93/7 725/164/7 724/165/7 774/98/7
f 774/98/7 724/165/7 723/166/7 773/97/7
f 773/97/7 723/166/7 722/167/7 772/102/7
f 772/102/7 722/167/7 721/168/7 771/101/7
f 771/101/7 721/168/7 720/169/7 770/106/7
f 770/106/7 720/169/7 719/170/7 769/105/7
f 769/105/7 719/170/7 718/171/7 768/110/7
f 768/110/7 718/171/7 717/172/7 767/109/7
f 767/109/7 717/172/7 716/173/7 766/114/7
f 766/114/7 716/173/7 715/174/7 765/113/7
f 765/113/7 715/174/7 714/175/7 764/118/7
f 764/118/7 714/175/7 713/176/7 763/117/7
f 763/117/7 713/176/7 712/177/7 762/122/7
f 762/122/7 712/177/7 711/178/7 761/121/7
f 761/121/7 711/178/7 710/179/7 760/126/7
f 760/126/7 710/179/7 709/180/7 759/125/7
f 759/125/7 709/180/7 708/181/7 758/130/7
f 758/130/7 708/181/7 707/182/7 757/129/7
f 757/129/7 707/182/7 706/183/7 756/134/7
f 756/134/7 706/183/7 705/184/7 755/133/7
f 755/133/7 705/184/7 704/1/7 754/26/7
f 526/136/7 450/186/7 703/185/7 753/135/7
f 752/137/7 702/188/7 701/187/7 751/138/7
f 750/139/7 700/190/7 699/189/7 749/140/7
f 748/141/7 698/192/7 697/191/7 747/142/7
f 746/143/7 696/194/7 695/193/7 745/144/7
f 744/145/7 694/196/7 693/195/7 743/146/7
f 742/147/7 692/198/7 691/197/7 741/148/7
f 740/149/7 690/200/7 689/199/7 739/150/7
f 738/151/7 688/202/7 687/201/7 737/152/7
f 736/153/7 686/204/7 685/203/7 735/154/7
f 734/155/7 684/206/7 683/205/7 733/156/7
f 732/157/7 682/208/7 681/207/7 731/158/7
f 730/159/7 680/210/7 679/209/7 729/160/7
f 728/161/7 678/212/7 677/211/7 727/162/7
f 726/163/7 676/214/7 675/213/7 725/164/7
f 724/165/7 674/216/7 673/215/7 723/166/7
f 722/167/7 672/218/7 671/217/7 721/168/7
f 720/169/7 670/220/7 669/219/7 719/170/7
f 718/171/7 668/222/7 667/221/7 717/172/7
f 716/173/7 666/224/7 665/223/7 715/174/7
f 714/175/7 664/226/7 663/225/7 713/176/7
f 712/177/7 662/228/7 661/227/7 711/178/7
f 710/179/7 660/230/7 659/229/7 709/180/7
f 708/181/7 658/232/7 657/231/7 707/182/7
f 706/183/7 656/234/7 655/233/7 705/184/7
f 651/235/7 890/131/7 891/132/7 652/236/7
f 649/237/7 888/127/7 889/128/7 650/238/7
f 647/239/7 886/123/7 887/124/7 648/240/7
f 645/241/7 884/119/7 885/120/7 646/242/7
f 643/243/7 882/115/7 883/116/7 644/244/7
f 641/245/7 880/111/7 881/112/7 642/246/7
f 639/247/7 878/107/7 879/108/7 640/248/7
f 637/249/7 876/103/7 877/104/7 638/250/7
f 635/251/7 874/99/7 875/100/7 636/252/7
f 633/253/7 872/95/7 873/96/7 634/254/7
f 631/255/7 870/91/7 871/92/7 632/256/7
f 629/257/7 868/87/7 869/88/7 630/258/7
f 627/259/7 866/83/7 867/84/7 628/260/7
f 625/261/7 864/79/7 865/80/7 626/262/7
f 623/263/7 862/75/7 863/76/7 624/264/7
f 621/265/7 860/71/7 861/72/7 622/266/7
f 619/267/7 858/67/7 859/68/7 620/268/7
f 617/269/7 856/63/7 857/64/7 618/270/7
f 615/271/7 854/59/7 855/60/7 616/272/7
f 613/273/7 852/55/7 853/56/7 614/274/7
f 611/275/7 850/51/7 851/52/7 612/276/7
f 609/277/7 848/47/7 849/48/7 610/278/7
f 607/279/7 846/43/7 847/44/7 608/280/7
f 605/281/7 844/39/7 845/40/7 606/282/7
f 448/283/7 804/35/7 843/36/7 604/284/7
f 653/285/7 892/28/7 893/8/7 894/7/7
f 601/27/4 602/29/4 841/9/4 840/8/4
f 599/27/4 600/27/4 839/9/4 838/20/4
f 597/30/4 598/27/4 837/13/4 836/13/4
f 595/31/4 596/31/4 835/9/4 834/19/4
f 593/27/4 594/31/4 833/9/4 832/8/4
f 591/27/4 592/27/4 831/8/4 830/8/4
f 589/27/4 590/27/4 829/18/4 828/15/4
f 587/31/4 588/29/4 827/13/4 826/5/4
f 585/27/4 586/31/4 825/16/4 824/15/4
f 583/29/4 584/29/4 823/13/4 822/9/4
f 581/27/4 582/29/4 821/13/4 820/14/4
f 579/27/4 580/27/4 819/8/4 818/13/4
f 577/32/4 578/27/4 817/13/4 816/12/4
f 575/27/4 576/31/4 815/11/4 814/9/4
f 573/33/4 574/27/4 813/9/4 812/9/4
f 571/27/4 572/34/4 811/10/4 810/9/4
f 569/27/4 570/33/4 809/9/4 808/8/4
f 566/27/8 568/29/8 807/9/8 805/8/8
f 603/30/4 567/27/4 806/8/4 842/5/4
f 1/283/9 357/35/9 804/35/9 448/283/9
f 447/7/10 206/285/10 653/285/10 894/7/10
f 3/186/11 256/185/11 703/185/11 450/186/11
f 6/3/1 81/2/1 528/2/1 453/3/1
f 4/3/11 42/3/11 489/3/11 451/3/11
f 5/7/10 78/6/10 525/6/10 452/7/10
f 7/3/11 6/3/11 453/3/11 454/3/11
f 9/3/11 8/3/11 455/3/11 456/3/11
f 11/3/11 10/3/11 457/3/11 458/3/11
f 13/21/11 12/3/11 459/3/11 460/21/11
f 15/3/11 14/3/11 461/3/11 462/3/11
f 17/3/11 16/3/11 463/3/11 464/3/11
f 19/3/11 18/3/11 465/3/11 466/3/11
f 21/3/11 20/3/11 467/3/11 468/3/11
f 23/3/11 22/3/11 469/3/11 470/3/11
f 25/3/11 24/3/11 471/3/11 472/3/11
f 27/3/11 26/24/11 473/24/11 474/3/11
f 29/3/11 28/3/11 475/3/11 476/3/11
f 31/3/11 30/24/11 477/24/11 478/3/11
f 33/3/11 32/3/11 479/3/11 480/3/11
f 35/3/11 34/24/11 481/24/11 482/3/11
f 37/3/11 36/3/11 483/3/11 484/3/11
f 39/3/11 38/3/11 485/3/11 486/3/11
f 41/3/11 40/3/11 487/3/11 488/3/11
f 43/7/10 2/7/10 449/7/10 490/7/10
f 45/7/10 44/7/10 491/7/10 492/7/10
f 47/7/10 46/7/10 493/7/10 494/7/10
f 49/7/10 48/7/10 495/7/10 496/7/10
f 51/7/10 50/7/10 497/7/10 498/7/10
f 53/7/10 52/7/10 499/7/10 500/7/10
f 55/7/10 54/7/10 501/7/10 502/7/10
f 57/7/10 56/7/10 503/7/10 504/7/10
f 59/7/10 58/7/10 505/7/10 506/7/10
f 61/7/10 60/7/10 507/7/10 508/7/10
f 63/7/10 62/17/10 509/17/10 510/7/10
f 65/17/10 64/7/10 511/7/10 512/17/10
f 67/7/10 66/7/10 513/7/10 514/7/10
f 69/7/10 68/7/10 515/7/10 516/7/10
f 71/7/10 70/17/10 517/17/10 518/7/10
f 73/7/10 72/7/10 519/7/10 520/7/10
f 75/7/10 74/17/10 521/17/10 522/7/10
f 77/7/10 76/7/10 523/7/10 524/7/10
f 42/3/1 82/2/1 529/2/1 489/3/1
f 83/2/7 41/3/7 488/3/7 530/2/7
f 40/3/1 84/25/1 531/25/1 487/3/1
f 85/2/7 39/3/7 486/3/7 532/2/7
f 38/3/1 86/23/1 533/23/1 485/3/1
f 87/2/7 37/3/7 484/3/7 534/2/7
f 36/3/1 88/2/1 535/2/1 483/3/1
f 89/2/7 35/3/7 482/3/7 536/2/7
f 34/24/1 90/2/1 537/2/1 481/24/1
f 91/23/7 33/3/7 480/3/7 538/23/7
f 32/3/1 92/2/1 539/2/1 479/3/1
f 93/2/7 31/3/7 478/3/7 540/2/7
f 30/24/1 94/2/1 541/2/1 477/24/1
f 95/2/7 29/3/7 476/3/7 542/2/7
f 28/3/1 96/2/1 543/2/1 475/3/1
f 97/2/7 27/3/7 474/3/7 544/2/7
f 26/24/1 98/2/1 545/2/1 473/24/1
f 99/2/7 25/3/7 472/3/7 546/2/7
f 24/3/1 100/23/1 547/23/1 471/3/1
f 101/2/7 23/3/7 470/3/7 548/2/7
f 22/3/1 102/2/1 549/2/1 469/3/1
f 103/2/7 21/3/7 468/3/7 550/2/7
f 20/3/1 104/2/1 551/2/1 467/3/1
f 105/2/7 19/3/7 466/3/7 552/2/7
f 18/3/1 106/2/1 553/2/1 465/3/1
f 107/2/7 17/3/7 464/3/7 554/2/7
f 16/3/1 108/2/1 555/2/1 463/3/1
f 109/2/7 15/3/7 462/3/7 556/2/7
f 14/3/1 110/2/1 557/2/1 461/3/1
f 111/22/7 13/21/7 460/21/7 558/22/7
f 12/3/1 112/2/1 559/2/1 459/3/1
f 113/2/7 11/3/7 458/3/7 560/2/7
f 10/3/1 114/2/1 561/2/1 457/3/1
f 115/2/7 9/3/7 456/3/7 562/2/7
f 8/3/1 116/2/1 563/2/1 455/3/1
f 117/22/7 7/3/7 454/3/7 564/22/7
f 79/136/2 3/186/2 450/186/2 526/136/2
f 81/2/1 120/27/1 567/27/1 528/2/1
f 116/2/11 117/22/11 564/22/11 563/2/11
f 114/2/11 115/2/11 562/2/11 561/2/11
f 112/2/11 113/2/11 560/2/11 559/2/11
f 110/2/11 111/22/11 558/22/11 557/2/11
f 108/2/11 109/2/11 556/2/11 555/2/11
f 106/2/11 107/2/11 554/2/11 553/2/11
f 104/2/11 105/2/11 552/2/11 551/2/11
f 102/2/11 103/2/11 550/2/11 549/2/11
f 100/23/11 101/2/11 548/2/11 547/23/11
f 98/2/11 99/2/11 546/2/11 545/2/11
f 96/2/11 97/2/11 544/2/11 543/2/11
f 94/2/11 95/2/11 542/2/11 541/2/11
f 92/2/11 93/2/11 540/2/11 539/2/11
f 90/2/11 91/23/11 538/23/11 537/2/11
f 88/2/11 89/2/11 536/2/11 535/2/11
f 86/23/11 87/2/11 534/2/11 533/23/11
f 84/25/11 85/2/11 532/2/11 531/25/11
f 82/2/11 83/2/11 530/2/11 529/2/11
f 118/38/2 79/136/2 526/136/2 565/38/2
f 119/27/12 446/8/12 893/8/12 566/27/12
f 120/27/1 359/8/1 806/8/1 567/27/1
f 121/29/1 360/9/1 807/9/1 568/29/1
f 361/8/7 122/27/7 569/27/7 808/8/7
f 123/33/1 362/9/1 809/9/1 570/33/1
f 363/9/7 124/27/7 571/27/7 810/9/7
f 125/34/1 364/10/1 811/10/1 572/34/1
f 365/9/7 126/33/7 573/33/7 812/9/7
f 127/27/1 366/9/1 813/9/1 574/27/1
f 367/9/7 128/27/7 575/27/7 814/9/7
f 129/31/1 368/11/1 815/11/1 576/31/1
f 369/12/7 130/32/7 577/32/7 816/12/7
f 131/27/1 370/13/1 817/13/1 578/27/1
f 371/13/7 132/27/7 579/27/7 818/13/7
f 133/27/1 372/8/1 819/8/1 580/27/1
f 373/14/7 134/27/7 581/27/7 820/14/7
f 135/29/1 374/13/1 821/13/1 582/29/1
f 375/9/7 136/29/7 583/29/7 822/9/7
f 137/29/1 376/13/1 823/13/1 584/29/1
f 377/15/7 138/27/7 585/27/7 824/15/7
f 139/31/1 378/16/1 825/16/1 586/31/1
f 379/5/7 140/31/7 587/31/7 826/5/7
f 141/29/1 380/13/1 827/13/1 588/29/1
f 381/15/7 142/27/7 589/27/7 828/15/7
f 143/27/1 382/18/1 829/18/1 590/27/1
f 383/8/7 144/27/7 591/27/7 830/8/7
f 145/27/1 384/8/1 831/8/1 592/27/1
f 385/8/7 146/27/7 593/27/7 832/8/7
f 147/31/1 386/9/1 833/9/1 594/31/1
f 387/19/7 148/31/7 595/31/7 834/19/7
f 149/31/1 388/9/1 835/9/1 596/31/1
f 389/13/7 150/30/7 597/30/7 836/13/7
f 151/27/1 390/13/1 837/13/1 598/27/1
f 391/20/7 152/27/7 599/27/7 838/20/7
f 153/27/1 392/9/1 839/9/1 600/27/1
f 393/8/7 154/27/7 601/27/7 840/8/7
f 155/29/1 394/9/1 841/9/1 602/29/1
f 395/5/7 156/30/7 603/30/7 842/5/7
f 156/30/10 155/29/10 602/29/10 603/30/10
f 154/27/10 153/27/10 600/27/10 601/27/10
f 152/27/10 151/27/10 598/27/10 599/27/10
f 150/30/10 149/31/10 596/31/10 597/30/10
f 148/31/10 147/31/10 594/31/10 595/31/10
f 146/27/10 145/27/10 592/27/10 593/27/10
f 144/27/10 143/27/10 590/27/10 591/27/10
f 142/27/10 141/29/10 588/29/10 589/27/10
f 140/31/10 139/31/10 586/31/10 587/31/10
f 138/27/10 137/29/10 584/29/10 585/27/10
f 136/29/10 135/29/10 582/29/10 583/29/10
f 134/27/10 133/27/10 580/27/10 581/27/10
f 132/27/10 131/27/10 578/27/10 579/27/10
f 130/32/10 129/31/10 576/31/10 577/32/10
f 128/27/10 127/27/10 574/27/10 575/27/10
f 126/33/10 125/34/10 572/34/10 573/33/10
f 124/27/10 123/33/10 570/33/10 571/27/10
f 122/27/10 121/29/10 568/29/10 569/27/10
f 157/284/10 1/283/10 448/283/10 604/284/10
f 159/282/10 158/281/10 605/281/10 606/282/10
f 161/280/10 160/279/10 607/279/10 608/280/10
f 163/278/10 162/277/10 609/277/10 610/278/10
f 165/276/10 164/275/10 611/275/10 612/276/10
f 167/274/10 166/273/10 613/273/10 614/274/10
f 169/272/10 168/271/10 615/271/10 616/272/10
f 171/270/10 170/269/10 617/269/10 618/270/10
f 173/268/10 172/267/10 619/267/10 620/268/10
f 175/266/10 174/265/10 621/265/10 622/266/10
f 177/264/10 176/263/10 623/263/10 624/264/10
f 179/262/10 178/261/10 625/261/10 626/262/10
f 181/260/10 180/259/10 627/259/10 628/260/10
f 183/258/10 182/257/10 629/257/10 630/258/10
f 185/256/10 184/255/10 631/255/10 632/256/10
f 187/254/10 186/253/10 633/253/10 634/254/10
f 189/252/10 188/251/10 635/251/10 636/252/10
f 191/250/10 190/249/10 637/249/10 638/250/10
f 193/248/10 192/247/10 639/247/10 640/248/10
f 195/246/10 194/245/10 641/245/10 642/246/10
f 197/244/10 196/243/10 643/243/10 644/244/10
f 199/242/10 198/241/10 645/241/10 646/242/10
f 201/240/10 200/239/10 647/239/10 648/240/10
f 203/238/10 202/237/10 649/237/10 650/238/10
f 205/236/10 204/235/10 651/235/10 652/236/10
f 207/4/11 4/3/11 451/3/11 654/4/11
f 209/234/11 208/233/11 655/233/11 656/234/11
f 211/232/11 210/231/11 657/231/11 658/232/11
f 213/230/11 212/229/11 659/229/11 660/230/11
f 215/228/11 214/227/11 661/227/11 662/228/11
f 217/226/11 216/225/11 663/225/11 664/226/11
f 219/224/11 218/223/11 665/223/11 666/224/11
f 221/222/11 220/221/11 667/221/11 668/222/11
f 223/220/11 222/219/11 669/219/11 670/220/11
f 225/218/11 224/217/11 671/217/11 672/218/11
f 227/216/11 226/215/11 673/215/11 674/216/11
f 229/214/11 228/213/11 675/213/11 676/214/11
f 231/212/11 230/211/11 677/211/11 678/212/11
f 233/210/11 232/209/11 679/209/11 680/210/11
f 235/208/11 234/207/11 681/207/11 682/208/11
f 237/206/11 236/205/11 683/205/11 684/206/11
f 239/204/11 238/203/11 685/203/11 686/204/11
f 241/202/11 240/201/11 687/201/11 688/202/11
f 243/200/11 242/199/11 689/199/11 690/200/11
f 245/198/11 244/197/11 691/197/11 692/198/11
f 247/196/11 246/195/11 693/195/11 694/196/11
f 249/194/11 248/193/11 695/193/11 696/194/11
f 251/192/11 250/191/11 697/191/11 698/192/11
f 253/190/11 252/189/11 699/189/11 700/190/11
f 255/188/11 254/187/11 701/187/11 702/188/11
f 258/184/11 257/1/11 704/1/11 705/184/11
f 260/182/11 259/183/11 706/183/11 707/182/11
f 262/180/11 261/181/11 708/181/11 709/180/11
f 264/178/11 263/179/11 710/179/11 711/178/11
f 266/176/11 265/177/11 712/177/11 713/176/11
f 268/174/11 267/175/11 714/175/11 715/174/11
f 270/172/11 269/173/11 716/173/11 717/172/11
f 272/170/11 271/171/11 718/171/11 719/170/11
f 274/168/11 273/169/11 720/169/11 721/168/11
f 276/166/11 275/167/11 722/167/11 723/166/11
f 278/164/11 277/165/11 724/165/11 725/164/11
f 280/162/11 279/163/11 726/163/11 727/162/11
f 282/160/11 281/161/11 728/161/11 729/160/11
f 284/158/11 283/159/11 730/159/11 731/158/11
f 286/156/11 285/157/11 732/157/11 733/156/11
f 288/154/11 287/155/11 734/155/11 735/154/11
f 290/152/11 289/153/11 736/153/11 737/152/11
f 292/150/11 291/151/11 738/151/11 739/150/11
f 294/148/11 293/149/11 740/149/11 741/148/11
f 296/146/11 295/147/11 742/147/11 743/146/11
f 298/144/11 297/145/11 744/145/11 745/144/11
f 300/142/11 299/143/11 746/143/11 747/142/11
f 302/140/11 301/141/11 748/141/11 749/140/11
f 304/138/11 303/139/11 750/139/11 751/138/11
f 306/135/11 305/137/11 752/137/11 753/135/11
f 307/26/10 308/133/10 755/133/10 754/26/10
f 309/134/10 310/129/10 757/129/10 756/134/10
f 311/130/10 312/125/10 759/125/10 758/130/10
f 313/126/10 314/121/10 761/121/10 760/126/10
f 315/122/10 316/117/10 763/117/10 762/122/10
f 317/118/10 318/113/10 765/113/10 764/118/10
f 319/114/10 320/109/10 767/109/10 766/114/10
f 321/110/10 322/105/10 769/105/10 768/110/10
f 323/106/10 324/101/10 771/101/10 770/106/10
f 325/102/10 326/97/10 773/97/10 772/102/10
f 327/98/10 328/93/10 775/93/10 774/98/10
f 329/94/10 330/89/10 777/89/10 776/94/10
f 331/90/10 332/85/10 779/85/10 778/90/10
f 333/86/10 334/81/10 781/81/10 780/86/10
f 335/82/10 336/77/10 783/77/10 782/82/10
f 337/78/10 338/73/10 785/73/10 784/78/10
f 339/74/10 340/69/10 787/69/10 786/74/10
f 341/70/10 342/65/10 789/65/10 788/70/10
f 343/66/10 344/61/10 791/61/10 790/66/10
f 345/62/10 346/57/10 793/57/10 792/62/10
f 347/58/10 348/53/10 795/53/10 794/58/10
f 349/54/10 350/49/10 797/49/10 796/54/10
f 351/50/10 352/45/10 799/45/10 798/50/10
f 353/46/10 354/41/10 801/41/10 800/46/10
f 355/42/10 356/37/10 803/37/10 802/42/10
f 356/37/4 396/36/4 843/36/4 803/37/4
f 397/39/2 355/42/2 802/42/2 844/39/2
f 354/41/4 398/40/4 845/40/4 801/41/4
f 399/43/2 353/46/2 800/46/2 846/43/2
f 352/45/4 400/44/4 847/44/4 799/45/4
f 401/47/2 351/50/2 798/50/2 848/47/2
f 350/49/4 402/48/4 849/48/4 797/49/4
f 403/51/2 349/54/2 796/54/2 850/51/2
f 348/53/4 404/52/4 851/52/4 795/53/4
f 405/55/2 347/58/2 794/58/2 852/55/2
f 346/57/4 406/56/4 853/56/4 793/57/4
f 407/59/2 345/62/2 792/62/2 854/59/2
f 344/61/4 408/60/4 855/60/4 791/61/4
f 409/63/2 343/66/2 790/66/2 856/63/2
f 342/65/4 410/64/4 857/64/4 789/65/4
f 411/67/2 341/70/2 788/70/2 858/67/2
f 340/69/4 412/68/4 859/68/4 787/69/4
f 413/71/2 339/74/2 786/74/2 860/71/2
f 338/73/4 414/72/4 861/72/4 785/73/4
f 415/75/2 337/78/2 784/78/2 862/75/2
f 336/77/4 416/76/4 863/76/4 783/77/4
f 417/79/2 335/82/2 782/82/2 864/79/2
f 334/81/4 418/80/4 865/80/4 781/81/4
f 419/83/2 333/86/2 780/86/2 866/83/2
f 332/85/4 420/84/4 867/84/4 779/85/4
f 421/87/2 331/90/2 778/90/2 868/87/2
f 330/89/4 422/88/4 869/88/4 777/89/4
f 423/91/2 329/94/2 776/94/2 870/91/2
f 328/93/4 424/92/4 871/92/4 775/93/4
f 425/95/2 327/98/2 774/98/2 872/95/2
f 326/97/4 426/96/4 873/96/4 773/97/4
f 427/99/2 325/102/2 772/102/2 874/99/2
f 324/101/4 428/100/4 875/100/4 771/101/4
f 429/103/2 323/106/2 770/106/2 876/103/2
f 322/105/4 430/104/4 877/104/4 769/105/4
f 431/107/2 321/110/2 768/110/2 878/107/2
f 320/109/4 432/108/4 879/108/4 767/109/4
f 433/111/2 319/114/2 766/114/2 880/111/2
f 318/113/4 434/112/4 881/112/4 765/113/4
f 435/115/2 317/118/2 764/118/2 882/115/2
f 316/117/4 436/116/4 883/116/4 763/117/4
f 437/119/2 315/122/2 762/122/2 884/119/2
f 314/121/4 438/120/4 885/120/4 761/121/4
f 439/123/2 313/126/2 760/126/2 886/123/2
f 312/125/4 440/124/4 887/124/4 759/125/4
f 441/127/2 311/130/2 758/130/2 888/127/2
f 310/129/4 442/128/4 889/128/4 757/129/4
f 443/131/2 309/134/2 756/134/2 890/131/2
f 308/133/4 444/132/4 891/132/4 755/133/4
f 445/28/2 307/26/2 754/26/2 892/28/2
f 256/185/4 306/135/4 753/135/4 703/185/4
f 305/137/2 255/188/2 702/188/2 752/137/2
f 254/187/4 304/138/4 751/138/4 701/187/4
f 303/139/2 253/190/2 700/190/2 750/139/2
f 252/189/4 302/140/4 749/140/4 699/189/4
f 301/141/2 251/192/2 698/192/2 748/141/2
f 250/191/4 300/142/4 747/142/4 697/191/4
f 299/143/2 249/194/2 696/194/2 746/143/2
f 248/193/4 298/144/4 745/144/4 695/193/4
f 297/145/2 247/196/2 694/196/2 744/145/2
f 246/195/4 296/146/4 743/146/4 693/195/4
f 295/147/2 245/198/2 692/198/2 742/147/2
f 244/197/4 294/148/4 741/148/4 691/197/4
f 293/149/2 243/200/2 690/200/2 740/149/2
f 242/199/4 292/150/4 739/150/4 689/199/4
f 291/151/2 241/202/2 688/202/2 738/151/2
f 240/201/4 290/152/4 737/152/4 687/201/4
f 289/153/2 239/204/2 686/204/2 736/153/2
f 238/203/4 288/154/4 735/154/4 685/203/4
f 287/155/2 237/206/2 684/206/2 734/155/2
f 236/205/4 286/156/4 733/156/4 683/205/4
f 285/157/2 235/208/2 682/208/2 732/157/2
f 234/207/4 284/158/4 731/158/4 681/207/4
f 283/159/2 233/210/2 680/210/2 730/159/2
f 232/209/4 282/160/4 729/160/4 679/209/4
f 281/161/2 231/212/2 678/212/2 728/161/2
f 230/211/4 280/162/4 727/162/4 677/211/4
f 279/163/2 229/214/2 676/214/2 726/163/2
f 228/213/4 278/164/4 725/164/4 675/213/4
f 277/165/2 227/216/2 674/216/2 724/165/2
f 226/215/4 276/166/4 723/166/4 673/215/4
f 275/167/2 225/218/2 672/218/2 722/167/2
f 224/217/4 274/168/4 721/168/4 671/217/4
f 273/169/2 223/220/2 670/220/2 720/169/2
f 222/219/4 272/170/4 719/170/4 669/219/4
f 271/171/2 221/222/2 668/222/2 718/171/2
f 220/221/4 270/172/4 717/172/4 667/221/4
f 269/173/2 219/224/2 666/224/2 716/173/2
f 218/223/4 268/174/4 715/174/4 665/223/4
f 267/175/2 217/226/2 664/226/2 714/175/2
f 216/225/4 266/176/4 713/176/4 663/225/4
f 265/177/2 215/228/2 662/228/2 712/177/2
f 214/227/4 264/178/4 711/178/4 661/227/4
f 263/179/2 213/230/2 660/230/2 710/179/2
f 212/229/4 262/180/4 709/180/4 659/229/4
f 261/181/2 211/232/2 658/232/2 708/181/2
f 210/231/4 260/182/4 707/182/4 657/231/4
f 259/183/2 209/234/2 656/234/2 706/183/2
f 208/233/4 258/184/4 705/184/4 655/233/4
f 257/1/2 207/4/2 654/4/2 704/1/2
f 357/35/2 118/38/2 565/38/2 804/35/2
f 2/7/13 358/8/13 805/8/13 449/7/13
f 359/8/14 5/7/14 452/7/14 806/8/14
f 360/9/14 43/7/14 490/7/14 807/9/14
f 44/7/13 361/8/13 808/8/13 491/7/13
f 362/9/14 45/7/14 492/7/14 809/9/14
f 46/7/13 363/9/13 810/9/13 493/7/13
f 364/10/14 47/7/14 494/7/14 811/10/14
f 48/7/13 365/9/13 812/9/13 495/7/13
f 366/9/14 49/7/14 496/7/14 813/9/14
f 50/7/13 367/9/13 814/9/13 497/7/13
f 368/11/14 51/7/14 498/7/14 815/11/14
f 52/7/13 369/12/13 816/12/13 499/7/13
f 370/13/14 53/7/14 500/7/14 817/13/14
f 54/7/13 371/13/13 818/13/13 501/7/13
f 372/8/14 55/7/14 502/7/14 819/8/14
f 56/7/13 373/14/13 820/14/13 503/7/13
f 374/13/14 57/7/14 504/7/14 821/13/14
f 58/7/13 375/9/13 822/9/13 505/7/13
f 376/13/14 59/7/14 506/7/14 823/13/14
f 60/7/13 377/15/13 824/15/13 507/7/13
f 378/16/14 61/7/14 508/7/14 825/16/14
f 62/17/13 379/5/13 826/5/13 509/17/13
f 380/13/14 63/7/14 510/7/14 827/13/14
f 64/7/13 381/15/13 828/15/13 511/7/13
f 382/18/14 65/17/14 512/17/14 829/18/14
f 66/7/13 383/8/13 830/8/13 513/7/13
f 384/8/14 67/7/14 514/7/14 831/8/14
f 68/7/13 385/8/13 832/8/13 515/7/13
f 386/9/14 69/7/14 516/7/14 833/9/14
f 70/17/13 387/19/13 834/19/13 517/17/13
f 388/9/14 71/7/14 518/7/14 835/9/14
f 72/7/13 389/13/13 836/13/13 519/7/13
f 390/13/14 73/7/14 520/7/14 837/13/14
f 74/17/13 391/20/13 838/20/13 521/17/13
f 392/9/14 75/7/14 522/7/14 839/9/14
f 76/7/13 393/8/13 840/8/13 523/7/13
f 394/9/14 77/7/14 524/7/14 841/9/14
f 78/6/13 395/5/13 842/5/13 525/6/13
f 396/36/15 157/284/15 604/284/15 843/36/15
f 158/281/9 397/39/9 844/39/9 605/281/9
f 398/40/15 159/282/15 606/282/15 845/40/15
f 160/279/9 399/43/9 846/43/9 607/279/9
f 400/44/15 161/280/15 608/280/15 847/44/15
f 162/277/9 401/47/9 848/47/9 609/277/9
f 402/48/15 163/278/15 610/278/15 849/48/15
f 164/275/9 403/51/9 850/51/9 611/275/9
f 404/52/15 165/276/15 612/276/15 851/52/15
f 166/273/9 405/55/9 852/55/9 613/273/9
f 406/56/15 167/274/15 614/274/15 853/56/15
f 168/271/9 407/59/9 854/59/9 615/271/9
f 408/60/15 169/272/15 616/272/15 855/60/15
f 170/269/9 409/63/9 856/63/9 617/269/9
f 410/64/15 171/270/15 618/270/15 857/64/15
f 172/267/9 411/67/9 858/67/9 619/267/9
f 412/68/15 173/268/15 620/268/15 859/68/15
f 174/265/9 413/71/9 860/71/9 621/265/9
f 414/72/15 175/266/15 622/266/15 861/72/15
f 176/263/9 415/75/9 862/75/9 623/263/9
f 416/76/15 177/264/15 624/264/15 863/76/15
f 178/261/9 417/79/9 864/79/9 625/261/9
f 418/80/15 179/262/15 626/262/15 865/80/15
f 180/259/9 419/83/9 866/83/9 627/259/9
f 420/84/15 181/260/15 628/260/15 867/84/15
f 182/257/9 421/87/9 868/87/9 629/257/9
f 422/88/15 183/258/15 630/258/15 869/88/15
f 184/255/9 423/91/9 870/91/9 631/255/9
f 424/92/15 185/256/15 632/256/15 871/92/15
f 186/253/9 425/95/9 872/95/9 633/253/9
f 426/96/15 187/254/15 634/254/15 873/96/15
f 188/251/9 427/99/9 874/99/9 635/251/9
f 428/100/15 189/252/15 636/252/15 875/100/15
f 190/249/9 429/103/9 876/103/9 637/249/9
f 430/104/15 191/250/15 638/250/15 877/104/15
f 192/247/9 431/107/9 878/107/9 639/247/9
f 432/108/15 193/248/15 640/248/15 879/108/15
f 194/245/9 433/111/9 880/111/9 641/245/9
f 434/112/15 195/246/15 642/246/15 881/112/15
f 196/243/16 435/115/16 882/115/16 643/243/16
f 436/116/17 197/244/17 644/244/17 883/116/17
f 198/241/9 437/119/9 884/119/9 645/241/9
f 438/120/15 199/242/15 646/242/15 885/120/15
f 200/239/9 439/123/9 886/123/9 647/239/9
f 440/124/15 201/240/15 648/240/15 887/124/15
f 202/237/9 441/127/9 888/127/9 649/237/9
f 442/128/15 203/238/15 650/238/15 889/128/15
f 204/235/18 443/131/18 890/131/18 651/235/18
f 444/132/19 205/236/19 652/236/19 891/132/19
f 206/285/9 445/28/9 892/28/9 653/285/9
f 358/8/20 119/27/20 566/27/20 805/8/20
f 446/8/15 447/7/15 894/7/15 893/8/15
