# Blender 4.5.2 LTS
# www.blender.org
mtllib photovoltaic panel.mtl
o photovoltaic_panel.003
v 3.958033 0.099182 4.240621
v 3.988774 0.098987 4.240649
v 3.957153 0.063998 4.970939
v 3.987894 0.063803 4.970964
v 2.924386 0.416479 4.932688
v 2.957781 0.11322 4.24264
v 2.913576 0.09857 4.292926
v 2.948876 0.078987 4.960214
v 2.926509 0.101396 4.937333
v 5.032595 0.403087 4.934734
v 5.040602 0.08513 4.294882
v 4.99668 0.100338 4.244516
v 5.026545 0.088127 4.939265
v 5.003862 0.066004 4.962106
v 3.990015 0.404592 4.965425
v 3.990247 0.434421 4.913612
v 3.959507 0.434615 4.913583
v 3.959274 0.404788 4.965398
v 2.95988 0.409694 4.963458
v 2.963682 0.440863 4.911193
v 2.929219 0.419591 4.93521
v 4.993634 0.428034 4.913061
v 4.996954 0.396822 4.96533
v 5.027763 0.406411 4.937073
v 3.957914 0.083041 4.259028
v 3.988654 0.082847 4.259058
v 3.957297 0.08397 4.950758
v 3.988038 0.083776 4.950786
v 2.946558 0.403038 4.926432
v 2.967749 0.089299 4.258117
v 2.945244 0.100163 4.30288
v 2.967132 0.090227 4.949846
v 2.94476 0.112687 4.92701
v 5.010255 0.389996 4.92833
v 5.008939 0.087121 4.304778
v 4.986382 0.076542 4.259974
v 5.008455 0.099645 4.928908
v 4.985765 0.077471 4.951704
v 3.989938 0.389982 4.948041
v 3.959197 0.390176 4.948014
v 2.969033 0.396433 4.947104
v 4.987665 0.383676 4.948959
vn -0.0063 -0.9988 -0.0481
vn 0.4414 -0.8973 0.0065
vn 0.5435 -0.8394 0.0029
vn -0.8105 -0.5843 -0.0409
vn -0.9028 -0.4244 -0.0699
vn -0.5541 -0.8324 0.002
vn -0.4527 -0.8916 0.0056
vn 0.8974 -0.4358 -0.0684
vn 0.8031 -0.5945 -0.0394
vn -0.6928 0.0522 0.7192
vn -0.5263 0.7622 -0.377
vn -0.6791 0.0474 0.7325
vn 0.5355 0.7562 -0.3761
vn 0.6926 0.0443 0.7199
vn 0.5445 0.7518 -0.372
vn 0.006 0.8816 -0.472
vn -0.0006 0.0345 0.9994
vn -0.0007 0.0345 0.9994
vn -0.0179 0.0295 0.9994
vn -0.0015 0.024 0.9997
vn 0.006 0.8865 -0.4626
vn 0.0227 0.8839 -0.4672
vn 0 0.024 0.9997
vn 0.0165 0.0293 0.9994
vn -0.0106 0.8841 -0.4672
vn 0.0065 0.8865 -0.4626
vn -0.0008 0.0163 0.9999
vn 0.0061 0.895 -0.4461
vn 0.003 0.8965 -0.4431
vn 0.0092 0.8964 -0.4431
vn -0.6765 0.0131 0.7363
vn -0.6219 0.7059 -0.3391
vn 0.6319 0.6976 -0.3378
vn 0.6745 0.0049 0.7383
vn 1 -0.0061 0.0009
vn -1 0.0061 -0.0009
vn -0.222 -0.8742 0.4317
vn 0.1109 -0.8562 0.5047
vn -0.0309 -0.9294 -0.3677
vn 0.2779 -0.9115 0.3033
vn -0.0102 -0.982 -0.1888
vn -0.3685 0.4761 -0.7985
vn -0.1181 0.6195 0.7761
vn 0.7337 0.6777 0.049
vn 0.5289 0.8113 -0.2491
vn -0.3798 -0.0082 -0.925
vn -0.007 -0.6468 -0.7627
vn 0.2083 -0.8774 0.4322
vn 0.02 -0.9297 -0.3677
vn -0.1225 -0.8547 0.5044
vn -0.0018 -0.982 -0.1888
vn -0.2898 -0.908 0.3027
vn 0.1245 0.6179 0.7763
vn 0.376 0.4714 -0.7977
vn -0.5182 0.8179 -0.2501
vn -0.7253 0.6868 0.0478
vn 0.3834 -0.0128 -0.9235
vn 0.0002 -0.6468 -0.7626
vn 0.8444 -0.4148 0.3389
vn -0.8218 -0.5483 0.1549
vn 0.1108 -0.9444 -0.3096
vn -0.0056 -0.9468 -0.3218
vn 0.8145 -0.5586 0.1564
vn -0.8502 -0.4041 0.3373
vn -0.0058 -0.9468 -0.3218
vn -0.1222 -0.9429 -0.3098
vn 1 -0.0062 0.0009
vn -0.6988 -0.006 0.7152
vn -1 0.0062 -0.0009
vn 0.6974 -0.0147 0.7165
vt 0.666667 0.752808
vt 0.333333 0.752808
vt 0.333333 0.745360
vt 0.666667 0.745360
vt 0.666667 0.505459
vt 0.333333 0.505459
vt 0.332841 0.500000
vt 0.666422 0.500000
vt 0.333333 0.994541
vt 0.666667 0.994541
vt 0.666422 1.000000
vt 0.332841 1.000000
vt 0.999896 0.505419
vt 0.983051 0.505459
vt 0.985814 0.500006
vt 0.983051 0.994541
vt 0.999896 0.994581
vt 0.985815 0.999994
vt 0.983051 0.752808
vt 0.983050 0.745360
vt 1.000000 0.745360
vt 1.000000 0.752808
vt 0.037823 0.752808
vt 0.037823 0.745360
vt 0.037823 0.505459
vt 0.031373 0.500006
vt 0.031408 0.500000
vt 0.985798 0.500000
vt 0.985799 1.000000
vt 0.031373 0.999994
vt 0.037823 0.994541
vt 0.031408 1.000000
s 0
usemtl 材质.005
f 2/1/1 4/2/1 3/3/1 1/4/1
f 6/5/2 8/6/3 9/7/4 7/8/5
f 14/9/6 12/10/7 11/11/8 13/12/9
f 19/13/10 20/14/11 21/15/12
f 22/16/13 23/17/14 24/18/15
f 16/19/16 17/20/16 18/21/17 15/22/18
f 19/13/19 18/21/20 17/20/21 20/14/22
f 15/22/23 23/17/24 22/16/25 16/19/26
f 4/2/27 15/23/27 18/24/27 3/3/27
f 16/19/28 2/1/28 1/4/28 17/20/28
f 8/6/31 19/25/31 21/26/31 5/27/31 9/7/31
f 21/15/32 20/14/32 6/5/32 7/8/32 5/28/32
f 12/10/33 22/16/33 24/18/33 10/29/33 11/11/33
f 24/30/34 23/31/34 14/9/34 13/12/34 10/32/34
f 4/2/35 2/1/35 26/1/35 28/2/35
f 1/4/36 3/3/36 27/3/36 25/4/36
f 5/28/37 7/8/37 31/8/37 29/28/37
f 8/6/38 6/5/39 30/5/40 32/6/41
f 7/8/42 9/7/43 33/7/44 31/8/45
f 9/7/46 5/27/46 29/27/46 33/7/46
f 11/11/48 10/29/48 34/29/48 35/11/48
f 12/10/49 14/9/50 38/9/51 36/10/52
f 13/12/53 11/11/54 35/11/55 37/12/56
f 10/32/57 13/12/57 37/12/57 34/32/57
f 18/21/59 19/13/60 41/13/61 40/21/62
f 23/17/63 15/22/64 39/22/65 42/17/66
f 15/23/67 4/2/67 28/2/67 39/23/67
f 14/9/68 23/31/68 42/31/68 38/9/68
f 3/3/69 18/24/69 40/24/69 27/3/69
f 19/25/70 8/6/70 32/6/70 41/25/70
usemtl 材质.006
f 16/19/29 22/16/29 12/10/29 2/1/29
f 20/14/30 17/20/30 1/4/30 6/5/30
f 6/5/47 1/4/47 25/4/47 30/5/47
f 2/1/58 12/10/58 36/10/58 26/1/58
